<svg height="800" width="800" viewBox="0 0 511.999 511.999" xml:space="preserve" xmlns="http://www.w3.org/2000/svg"><path d="m419.517 464.592-30.801 2.111-9.419-137.389c17.735-4.813 33.692-14.774 46.095-29.001 16.531-18.965 24.693-43.155 22.982-68.113L438.245 84.452c-.968-14.125-13.243-24.826-27.371-23.859l-136.268 9.341c-8.216.565-15.253 4.97-19.53 11.325a25.46 25.46 0 0 0-15.201-6.687L103.761 63.221c-14.105-1.172-26.543 9.345-27.72 23.451l-6.542 78.429c-.004.045-.009.091-.011.136l-5.758 69.018c-2.079 24.93 5.724 49.237 21.974 68.444 12.19 14.409 27.999 24.606 45.662 29.679l-11.449 137.235-30.766-2.566c-10.147-.839-19.033 6.684-19.877 16.816-.844 10.133 6.684 19.032 16.816 19.877l98.226 8.194c.52.043 1.038.065 1.551.065 9.475 0 17.524-7.27 18.327-16.881.844-10.133-6.684-19.031-16.816-19.877l-30.766-2.566 11.449-137.256c18.256-2.078 35.538-9.494 49.945-21.681 19.207-16.249 30.931-38.928 33.01-63.857l5.594-67.064 4.268 62.242c3.113 45.409 38.167 81.129 81.682 86.749l9.421 137.417-30.801 2.111c-10.144.695-17.803 9.483-17.108 19.627.665 9.716 8.755 17.152 18.349 17.152.423 0 .849-.015 1.278-.044l98.336-6.742c10.144-.695 17.803-9.483 17.108-19.627s-9.478-17.802-19.626-17.11zM214.324 246.817c-1.263 15.13-8.4 28.912-20.099 38.809s-26.477 14.658-41.602 13.391c-15.129-1.262-28.911-8.399-38.808-20.098-9.897-11.698-14.652-26.473-13.391-41.602l3.772-45.215c19.171 5.829 39.504 7.57 59.414 5.003 16.427-2.12 33.35-.275 48.937 5.335l5.318 1.913-3.541 42.464zm6.703-80.39c-19.94-6.504-41.329-8.525-62.13-5.84a105.178 105.178 0 0 1-51.396-6.255l-.151-.059 4.457-53.432 113.899 9.5-4.679 56.086zm70.886-7.026-3.667-53.493 114.027-7.817 3.849 56.148c-20.695-3.417-42.143-2.182-62.299 3.615a105.185 105.185 0 0 1-51.752 1.583l-.158-.036zm25.223 122.235c-11.552-10.068-18.485-23.954-19.524-39.099l-3.103-45.259a141.925 141.925 0 0 0 59.488-4.038c15.918-4.579 32.924-5.312 49.181-2.121l5.546 1.089 2.915 42.511c1.038 15.146-3.935 29.848-14.004 41.399-10.069 11.552-23.956 18.485-39.1 19.522-15.147 1.038-29.848-3.934-41.399-14.004z"/><path d="M234.787 18.64c-5.782-.485-11.403 1.317-15.831 5.063a21.574 21.574 0 0 0-7.617 14.775 21.57 21.57 0 0 0 5.063 15.837c3.746 4.428 8.993 7.133 14.78 7.617.61.052 1.215.076 1.816.076 11.164 0 20.685-8.592 21.631-19.914.999-11.935-7.9-22.456-19.842-23.454zM180.569 4.264c-11.936-1.006-22.456 7.902-23.454 19.844-.994 11.931 7.905 22.45 19.844 23.448.61.052 1.215.076 1.816.076 11.165 0 20.686-8.592 21.631-19.914.998-11.935-7.901-22.456-19.837-23.454zm239.984 21.993v-.006a21.58 21.58 0 0 0-7.4-14.888c-4.373-3.811-9.971-5.695-15.753-5.295a21.58 21.58 0 0 0-14.892 7.397 21.58 21.58 0 0 0-5.297 15.754 21.576 21.576 0 0 0 7.399 14.893c3.99 3.477 8.998 5.348 14.236 5.348.503 0 1.01-.017 1.517-.052 11.948-.816 21.006-11.201 20.19-23.151zm-55.774-6.024C363.959 8.287 353.563-.762 341.621.05a21.583 21.583 0 0 0-14.887 7.397 21.58 21.58 0 0 0-5.296 15.761 21.572 21.572 0 0 0 7.397 14.885c3.99 3.478 8.998 5.349 14.237 5.349.503 0 1.01-.017 1.517-.052 5.789-.396 11.078-3.023 14.892-7.397s5.696-9.971 5.298-15.76z"/><path style="fill:#500;stroke-width:.909091" d="M232.69 465.957c-33.313-5.178-61.36-29.427-71.599-61.902-4.703-14.92-4.815-20.915-1.194-63.958 1.783-21.196 3.38-38.678 3.55-38.848.17-.17 1.715.108 3.431.619 24.257 7.206 58.985 9.919 86.758 6.777 28.327-3.204 52.32-.744 77.5 7.947 8.117 2.801 8.41 2.998 8.409 5.655-.002 7.117-5.646 68.536-6.793 73.926-7.84 36.842-38.907 65.494-76.066 70.153-9.333 1.17-14.612 1.09-23.995-.37zM544.09 461.244c-12.257-1.579-27.451-7.239-38.681-14.41-6.827-4.36-18.51-15.627-23.582-22.743-7.326-10.28-13.789-25.843-15.42-37.133-.766-5.311-5.858-77.294-5.495-77.693.14-.155 5.482.21 11.87.811 14.043 1.32 36.753.67 51.309-1.468 5.75-.845 17.614-3.332 26.364-5.527 23.384-5.866 32.68-7.018 52.272-6.475 13.79.382 27.94 1.99 34.128 3.877 1.176.36 1.805 6.428 3.932 37.927 2.4 35.567 2.46 37.968 1.14 46.59-2.087 13.649-6.277 24.713-13.855 36.585-4.12 6.456-15.918 18.664-22.752 23.543-7.774 5.55-21.23 11.733-30.36 13.949-7.529 1.828-24.34 3.008-30.87 2.167zM267.63 71.55c-9.26-3.907-14.815-9.16-18.902-17.872-2-4.263-2.364-6.308-2.364-13.243 0-7.415.283-8.776 2.954-14.202 3.503-7.115 9.209-12.701 16.432-16.087 4.452-2.087 6.343-2.419 13.795-2.419 7.632 0 9.244.298 13.854 2.562 25.316 12.432 25.359 47.915.074 60.285-7.399 3.62-18.577 4.042-25.843.976zM353.913 94.665c-9.587-3.167-16.268-9.457-20.884-19.665-3.096-6.848-2.946-18.138.336-25.198 13.61-29.273 55.065-25.596 63.055 5.592 6.217 24.268-18.578 47.175-42.507 39.27zM525.91 65.664c-6.284-2.42-9.204-4.261-13.415-8.462-15.903-15.862-11.466-42.938 8.66-52.846 5.649-2.78 6.725-2.992 15.19-2.992 8.268 0 9.595.245 14.362 2.66 6.48 3.28 12.73 9.82 15.947 16.687 2.092 4.461 2.432 6.358 2.4 13.38-.032 7-.395 8.92-2.512 13.294-5.981 12.359-16.017 19.106-29.129 19.584-5.382.196-8.534-.162-11.504-1.305zM618.455 76.204c-13.202-1.713-24.143-11.733-27.617-25.292-4.927-19.234 9.711-39.27 29.743-40.708 7.928-.57 14.107 1.007 20.738 5.293 17.796 11.502 20.49 36.084 5.579 50.9-8.104 8.052-17.363 11.244-28.443 9.807z" transform="scale(.64)"/></svg>