<?xml version="1.0" encoding="UTF-8" standalone="no"?>
<svg
   height="800"
   width="800"
   viewBox="0 0 511.999 511.999"
   xml:space="preserve"
   version="1.1"
   id="svg2"
   sodipodi:docname="Anniversary.svg"
   inkscape:version="1.4.3 (0d15f75, 2025-12-25)"
   xmlns:inkscape="http://www.inkscape.org/namespaces/inkscape"
   xmlns:sodipodi="http://sodipodi.sourceforge.net/DTD/sodipodi-0.dtd"
   xmlns="http://www.w3.org/2000/svg"
   xmlns:svg="http://www.w3.org/2000/svg"><defs
     id="defs2" /><sodipodi:namedview
     id="namedview2"
     pagecolor="#ffffff"
     bordercolor="#000000"
     borderopacity="0.25"
     inkscape:showpageshadow="2"
     inkscape:pageopacity="0.0"
     inkscape:pagecheckerboard="0"
     inkscape:deskcolor="#d1d1d1"
     inkscape:zoom="1.1"
     inkscape:cx="400"
     inkscape:cy="400.45455"
     inkscape:window-width="1024"
     inkscape:window-height="1186"
     inkscape:window-x="1910"
     inkscape:window-y="112"
     inkscape:window-maximized="0"
     inkscape:current-layer="svg2" /><path
     d="m419.517 464.592-30.801 2.111-9.419-137.389c17.735-4.813 33.692-14.774 46.095-29.001 16.531-18.965 24.693-43.155 22.982-68.113L438.245 84.452c-.968-14.125-13.243-24.826-27.371-23.859l-136.268 9.341c-8.216.565-15.253 4.97-19.53 11.325a25.46 25.46 0 0 0-15.201-6.687L103.761 63.221c-14.105-1.172-26.543 9.345-27.72 23.451l-6.542 78.429c-.004.045-.009.091-.011.136l-5.758 69.018c-2.079 24.93 5.724 49.237 21.974 68.444 12.19 14.409 27.999 24.606 45.662 29.679l-11.449 137.235-30.766-2.566c-10.147-.839-19.033 6.684-19.877 16.816-.844 10.133 6.684 19.032 16.816 19.877l98.226 8.194c.52.043 1.038.065 1.551.065 9.475 0 17.524-7.27 18.327-16.881.844-10.133-6.684-19.031-16.816-19.877l-30.766-2.566 11.449-137.256c18.256-2.078 35.538-9.494 49.945-21.681 19.207-16.249 30.931-38.928 33.01-63.857l5.594-67.064 4.268 62.242c3.113 45.409 38.167 81.129 81.682 86.749l9.421 137.417-30.801 2.111c-10.144.695-17.803 9.483-17.108 19.627.665 9.716 8.755 17.152 18.349 17.152.423 0 .849-.015 1.278-.044l98.336-6.742c10.144-.695 17.803-9.483 17.108-19.627s-9.478-17.802-19.626-17.11zM214.324 246.817c-1.263 15.13-8.4 28.912-20.099 38.809s-26.477 14.658-41.602 13.391c-15.129-1.262-28.911-8.399-38.808-20.098-9.897-11.698-14.652-26.473-13.391-41.602l3.772-45.215c19.171 5.829 39.504 7.57 59.414 5.003 16.427-2.12 33.35-.275 48.937 5.335l5.318 1.913-3.541 42.464zm6.703-80.39c-19.94-6.504-41.329-8.525-62.13-5.84a105.178 105.178 0 0 1-51.396-6.255l-.151-.059 4.457-53.432 113.899 9.5-4.679 56.086zm70.886-7.026-3.667-53.493 114.027-7.817 3.849 56.148c-20.695-3.417-42.143-2.182-62.299 3.615a105.185 105.185 0 0 1-51.752 1.583l-.158-.036zm25.223 122.235c-11.552-10.068-18.485-23.954-19.524-39.099l-3.103-45.259a141.925 141.925 0 0 0 59.488-4.038c15.918-4.579 32.924-5.312 49.181-2.121l5.546 1.089 2.915 42.511c1.038 15.146-3.935 29.848-14.004 41.399-10.069 11.552-23.956 18.485-39.1 19.522-15.147 1.038-29.848-3.934-41.399-14.004z"
     id="path1" /><path
     d="M234.787 18.64c-5.782-.485-11.403 1.317-15.831 5.063a21.574 21.574 0 0 0-7.617 14.775 21.57 21.57 0 0 0 5.063 15.837c3.746 4.428 8.993 7.133 14.78 7.617.61.052 1.215.076 1.816.076 11.164 0 20.685-8.592 21.631-19.914.999-11.935-7.9-22.456-19.842-23.454zM180.569 4.264c-11.936-1.006-22.456 7.902-23.454 19.844-.994 11.931 7.905 22.45 19.844 23.448.61.052 1.215.076 1.816.076 11.165 0 20.686-8.592 21.631-19.914.998-11.935-7.901-22.456-19.837-23.454zM420.553 26.257v-.006a21.58 21.58 0 0 0-7.4-14.888c-4.373-3.811-9.971-5.695-15.753-5.295a21.58 21.58 0 0 0-14.892 7.397 21.58 21.58 0 0 0-5.297 15.754 21.576 21.576 0 0 0 7.399 14.893c3.99 3.477 8.998 5.348 14.236 5.348.503 0 1.01-.017 1.517-.052 11.948-.816 21.006-11.201 20.19-23.151zM364.779 20.233C363.959 8.287 353.563-.762 341.621.05a21.583 21.583 0 0 0-14.887 7.397 21.58 21.58 0 0 0-5.296 15.761 21.572 21.572 0 0 0 7.397 14.885c3.99 3.478 8.998 5.349 14.237 5.349.503 0 1.01-.017 1.517-.052 5.789-.396 11.078-3.023 14.892-7.397s5.696-9.971 5.298-15.76z"
     id="path2" /><path
     style="fill:#550000;stroke-width:0.909091"
     d="m 232.69054,465.95667 c -33.31321,-5.17812 -61.3607,-29.42682 -71.59943,-61.9019 -4.70361,-14.91885 -4.81559,-20.91468 -1.19444,-63.95756 1.78323,-21.19654 3.38127,-38.67818 3.55118,-38.84809 0.16991,-0.16991 1.71366,0.10838 3.43054,0.61843 24.25701,7.20623 58.98431,9.9191 86.75797,6.77747 28.32627,-3.20415 52.32015,-0.74387 77.5,7.94668 8.1164,2.80128 8.40907,2.99812 8.40829,5.6553 -0.002,7.11747 -5.64518,68.53588 -6.7923,73.92604 -7.84062,36.84211 -38.90761,65.49401 -76.06665,70.15336 -9.33254,1.1702 -14.61137,1.08886 -23.99516,-0.36973 z"
     id="path3"
     transform="scale(0.63999875)" /><path
     style="fill:#550000;stroke-width:0.909091"
     d="m 544.09091,461.24408 c -12.25803,-1.5786 -27.45192,-7.23863 -38.68222,-14.40991 -6.82691,-4.35943 -18.51013,-15.62726 -23.58169,-22.74326 -7.3264,-10.27981 -13.78877,-25.84249 -15.41925,-37.13262 -0.76704,-5.31128 -5.85875,-77.29424 -5.49564,-77.69348 0.14038,-0.15435 5.48146,0.21073 11.86906,0.8113 14.04428,1.32045 36.75354,0.67055 51.30974,-1.46841 5.75,-0.84493 17.61364,-3.33203 26.36364,-5.52689 23.38483,-5.86587 32.68113,-7.01735 52.27272,-6.47472 13.78937,0.38193 27.93921,1.98952 34.12734,3.87727 1.17601,0.35876 1.80523,6.4281 3.93193,37.92642 2.4014,35.56698 2.4602,37.96776 1.14122,46.59022 -2.08782,13.64862 -6.27826,24.7135 -13.8554,36.58529 -4.1206,6.45613 -15.91851,18.66376 -22.7528,23.54296 -7.77395,5.55007 -21.2297,11.73233 -30.35915,13.94857 -7.52933,1.82779 -24.34059,3.00806 -30.8695,2.16726 z"
     id="path4"
     transform="scale(0.63999875)" /><path
     style="fill:#550000;stroke-width:0.909091"
     d="m 267.62951,71.55009 c -9.25895,-3.9067 -14.81496,-9.160241 -18.90123,-17.872244 -1.99948,-4.262936 -2.36464,-6.307937 -2.36464,-13.242416 0,-7.415157 0.28308,-8.775964 2.95448,-14.202344 3.50269,-7.114971 9.20844,-12.701105 16.43175,-16.087261 4.45175,-2.0869019 6.34351,-2.4185523 13.79558,-2.4185523 7.63203,0 9.24314,0.2979595 13.85403,2.5621613 25.31506,12.431091 25.35831,47.914161 0.0735,60.28487 -7.39856,3.619774 -18.57687,4.04184 -25.84347,0.975786 z"
     id="path5"
     transform="scale(0.63999875)" /><path
     style="fill:#550000;stroke-width:0.909091"
     d="M 353.91298,94.664878 C 344.32572,91.498123 337.64537,85.207595 333.02947,75 c -3.0969,-6.848478 -2.94649,-18.138425 0.33572,-25.198241 13.60923,-29.272616 55.06433,-25.595716 63.05442,5.592675 6.217,24.267302 -18.57778,47.174356 -42.50663,39.270444 z"
     id="path6"
     transform="scale(0.63999875)" /><path
     style="fill:#550000;stroke-width:0.909091"
     d="M 525.90909,65.66375 C 519.62613,63.244504 516.70615,61.402589 512.49528,57.202337 496.59232,41.3395 501.02924,14.26444 521.15541,4.3563623 c 5.64844,-2.780722 6.72444,-2.9927259 15.18911,-2.9927259 8.26802,0 9.59548,0.2458343 14.36235,2.6597794 6.47967,3.281307 12.72922,9.8207752 15.94762,16.6874342 2.09103,4.461322 2.43112,6.358121 2.39902,13.380059 -0.032,7.000733 -0.39459,8.919864 -2.51182,13.294535 -5.9811,12.358278 -16.01713,19.105604 -29.12848,19.583372 -5.382,0.196117 -8.53411,-0.161471 -11.50412,-1.305066 z"
     id="path7"
     transform="scale(0.63999875)" /><path
     style="fill:#550000;stroke-width:0.909091"
     d="M 618.45461,76.203551 C 605.25302,74.49086 594.31207,64.470829 590.83843,50.911857 c -4.92757,-19.234163 9.7109,-39.26983 29.74232,-40.7083 7.92851,-0.5693519 14.10766,1.00785 20.73812,5.293322 17.79661,11.502508 20.49076,36.083753 5.57874,50.900246 -8.10383,8.051924 -17.36221,11.243978 -28.443,9.806426 z"
     id="path8"
     transform="scale(0.63999875)" /></svg>
