<svg height="800" width="800" xmlns="http://www.w3.org/2000/svg" viewBox="0 0 511.999 511.999" xml:space="preserve"><path d="m419.517 464.592-30.801 2.111-9.419-137.389c17.735-4.813 33.692-14.774 46.095-29.001 16.531-18.965 24.693-43.155 22.982-68.113L438.245 84.452c-.968-14.125-13.243-24.826-27.371-23.859l-136.268 9.341c-8.216.565-15.253 4.97-19.53 11.325a25.46 25.46 0 0 0-15.201-6.687L103.761 63.221c-14.105-1.172-26.543 9.345-27.72 23.451l-6.542 78.429c-.004.045-.009.091-.011.136l-5.758 69.018c-2.079 24.93 5.724 49.237 21.974 68.444 12.19 14.409 27.999 24.606 45.662 29.679l-11.449 137.235-30.766-2.566c-10.147-.839-19.033 6.684-19.877 16.816-.844 10.133 6.684 19.032 16.816 19.877l98.226 8.194c.52.043 1.038.065 1.551.065 9.475 0 17.524-7.27 18.327-16.881.844-10.133-6.684-19.031-16.816-19.877l-30.766-2.566 11.449-137.256c18.256-2.078 35.538-9.494 49.945-21.681 19.207-16.249 30.931-38.928 33.01-63.857l5.594-67.064 4.268 62.242c3.113 45.409 38.167 81.129 81.682 86.749l9.421 137.417-30.801 2.111c-10.144.695-17.803 9.483-17.108 19.627.665 9.716 8.755 17.152 18.349 17.152.423 0 .849-.015 1.278-.044l98.336-6.742c10.144-.695 17.803-9.483 17.108-19.627s-9.478-17.802-19.626-17.11zM214.324 246.817c-1.263 15.13-8.4 28.912-20.099 38.809s-26.477 14.658-41.602 13.391c-15.129-1.262-28.911-8.399-38.808-20.098-9.897-11.698-14.652-26.473-13.391-41.602l3.772-45.215c19.171 5.829 39.504 7.57 59.414 5.003 16.427-2.12 33.35-.275 48.937 5.335l5.318 1.913-3.541 42.464zm6.703-80.39c-19.94-6.504-41.329-8.525-62.13-5.84a105.178 105.178 0 0 1-51.396-6.255l-.151-.059 4.457-53.432 113.899 9.5-4.679 56.086zm70.886-7.026-3.667-53.493 114.027-7.817 3.849 56.148c-20.695-3.417-42.143-2.182-62.299 3.615a105.185 105.185 0 0 1-51.752 1.583l-.158-.036zm25.223 122.235c-11.552-10.068-18.485-23.954-19.524-39.099l-3.103-45.259a141.925 141.925 0 0 0 59.488-4.038c15.918-4.579 32.924-5.312 49.181-2.121l5.546 1.089 2.915 42.511c1.038 15.146-3.935 29.848-14.004 41.399-10.069 11.552-23.956 18.485-39.1 19.522-15.147 1.038-29.848-3.934-41.399-14.004z"/><path d="M234.787 18.64c-5.782-.485-11.403 1.317-15.831 5.063a21.574 21.574 0 0 0-7.617 14.775 21.57 21.57 0 0 0 5.063 15.837c3.746 4.428 8.993 7.133 14.78 7.617.61.052 1.215.076 1.816.076 11.164 0 20.685-8.592 21.631-19.914.999-11.935-7.9-22.456-19.842-23.454zM180.569 4.264c-11.936-1.006-22.456 7.902-23.454 19.844-.994 11.931 7.905 22.45 19.844 23.448.61.052 1.215.076 1.816.076 11.165 0 20.686-8.592 21.631-19.914.998-11.935-7.901-22.456-19.837-23.454zM420.553 26.257v-.006a21.58 21.58 0 0 0-7.4-14.888c-4.373-3.811-9.971-5.695-15.753-5.295a21.58 21.58 0 0 0-14.892 7.397 21.58 21.58 0 0 0-5.297 15.754 21.576 21.576 0 0 0 7.399 14.893c3.99 3.477 8.998 5.348 14.236 5.348.503 0 1.01-.017 1.517-.052 11.948-.816 21.006-11.201 20.19-23.151zM364.779 20.233C363.959 8.287 353.563-.762 341.621.05a21.583 21.583 0 0 0-14.887 7.397 21.58 21.58 0 0 0-5.296 15.761 21.572 21.572 0 0 0 7.397 14.885c3.99 3.478 8.998 5.349 14.237 5.349.503 0 1.01-.017 1.517-.052 5.789-.396 11.078-3.023 14.892-7.397s5.696-9.971 5.298-15.76z"/></svg>