<svg height="800" width="800" xmlns="http://www.w3.org/2000/svg" viewBox="0 0 198.932 198.932" xml:space="preserve"><path d="M64.028 198.932a16.268 16.268 0 0 1-11.58-4.796L4.796 146.483A16.267 16.267 0 0 1 0 134.904c0-4.375 1.703-8.487 4.796-11.58l96.375-96.375c5.589-5.589 14.247-6.285 20.598-2.091l5.447-5.446c2.876-2.875 7.554-2.875 10.428 0l4.82 4.819L174.346 9.62l7.028-7.028c3.724-3.724 10.109-3.396 14.235.73 4.126 4.125 4.454 10.511.731 14.235l-7.029 7.028L174.7 56.468l4.819 4.819c2.875 2.875 2.875 7.554 0 10.429l-5.446 5.446c4.195 6.354 3.498 15.01-2.091 20.599l-96.375 96.375a16.272 16.272 0 0 1-11.579 4.796zm-8.045-8.332c2.149 2.148 5.006 3.332 8.044 3.332s5.895-1.183 8.043-3.332l82.141-82.14h-26.366l-18.956 18.956a.397.397 0 0 1-.029.029l-.029.029-23.315 23.315-.029.029-.029.029-17.297 17.296a2.498 2.498 0 0 1-3.535 0l-6.192-6.192a2.498 2.498 0 0 1 0-3.535 2.498 2.498 0 0 1 3.535 0l4.425 4.424 13.791-13.79-4.424-4.425a2.498 2.498 0 0 1 0-3.535 2.498 2.498 0 0 1 3.535 0l4.424 4.424 19.838-19.838-4.424-4.425a2.498 2.498 0 0 1 0-3.535 2.498 2.498 0 0 1 3.535 0l4.425 4.424 13.681-13.682H26.732l-18.4 18.399C6.183 129.008 5 131.865 5 134.904s1.183 5.895 3.332 8.043L55.983 190.6zm76.863-87.14h26.366l9.235-9.234c4.415-4.416 4.436-11.586.061-16.027l-47.713-47.714c-4.435-4.435-11.652-4.436-16.088 0L31.732 103.46h94.043l1.157-1.157-4.424-4.424a2.498 2.498 0 0 1 0-3.535 2.498 2.498 0 0 1 3.535 0l4.424 4.424 13.791-13.791-4.424-4.425a2.498 2.498 0 0 1 0-3.535 2.498 2.498 0 0 1 3.535 0l6.192 6.192a2.498 2.498 0 0 1 0 3.535l-16.715 16.716zm-7.306-75.301 45.232 45.233 5.212-5.211a2.377 2.377 0 0 0 0-3.358l-41.875-41.875a2.379 2.379 0 0 0-3.358 0l-5.211 5.211zm20.695-.156 24.693 24.693 14.025-30.603c.124-.27.294-.516.505-.726l7.346-7.346c1.773-1.773 1.446-4.987-.73-7.164-2.176-2.176-5.39-2.504-7.165-.73l-7.346 7.346c-.21.21-.456.381-.726.505l-30.602 14.025z"/></svg>