<svg height="800" width="800" viewBox="0 0 198.932 198.932" xml:space="preserve" xmlns="http://www.w3.org/2000/svg"><path d="M64.028 198.932a16.268 16.268 0 0 1-11.58-4.796L4.796 146.483A16.267 16.267 0 0 1 0 134.904c0-4.375 1.703-8.487 4.796-11.58l96.375-96.375c5.589-5.589 14.247-6.285 20.598-2.091l5.447-5.446c2.876-2.875 7.554-2.875 10.428 0l4.82 4.819L174.346 9.62l7.028-7.028c3.724-3.724 10.109-3.396 14.235.73 4.126 4.125 4.454 10.511.731 14.235l-7.029 7.028L174.7 56.468l4.819 4.819c2.875 2.875 2.875 7.554 0 10.429l-5.446 5.446c4.195 6.354 3.498 15.01-2.091 20.599l-96.375 96.375a16.272 16.272 0 0 1-11.579 4.796zm-8.045-8.332c2.149 2.148 5.006 3.332 8.044 3.332s5.895-1.183 8.043-3.332l82.141-82.14h-26.366l-18.956 18.956a.397.397 0 0 1-.029.029l-.029.029-23.315 23.315-.029.029-.029.029-17.297 17.296a2.498 2.498 0 0 1-3.535 0l-6.192-6.192a2.498 2.498 0 0 1 0-3.535 2.498 2.498 0 0 1 3.535 0l4.425 4.424 13.791-13.79-4.424-4.425a2.498 2.498 0 0 1 0-3.535 2.498 2.498 0 0 1 3.535 0l4.424 4.424 19.838-19.838-4.424-4.425a2.498 2.498 0 0 1 0-3.535 2.498 2.498 0 0 1 3.535 0l4.425 4.424 13.681-13.682H26.732l-18.4 18.399C6.183 129.008 5 131.865 5 134.904s1.183 5.895 3.332 8.043L55.983 190.6zm76.863-87.14h26.366l9.235-9.234c4.415-4.416 4.436-11.586.061-16.027l-47.713-47.714c-4.435-4.435-11.652-4.436-16.088 0L31.732 103.46h94.043l1.157-1.157-4.424-4.424a2.498 2.498 0 0 1 0-3.535 2.498 2.498 0 0 1 3.535 0l4.424 4.424 13.791-13.791-4.424-4.425a2.498 2.498 0 0 1 0-3.535 2.498 2.498 0 0 1 3.535 0l6.192 6.192a2.498 2.498 0 0 1 0 3.535l-16.715 16.716zm-7.306-75.301 45.232 45.233 5.212-5.211a2.377 2.377 0 0 0 0-3.358l-41.875-41.875a2.379 2.379 0 0 0-3.358 0l-5.211 5.211zm20.695-.156 24.693 24.693 14.025-30.603c.124-.27.294-.516.505-.726l7.346-7.346c1.773-1.773 1.446-4.987-.73-7.164-2.176-2.176-5.39-2.504-7.165-.73l-7.346 7.346c-.21.21-.456.381-.726.505l-30.602 14.025z"/><path style="fill:#fea;stroke-width:.909091" d="M244.362 777.336c-2.852-.912-7.147-2.779-9.546-4.149-6.006-3.43-201.84-198.852-206.765-206.331-5.455-8.28-7.47-16.042-6.942-26.722.47-9.47 2.31-15.174 7.374-22.861 1.482-2.25 19.907-21.375 40.945-42.5l38.25-38.41h377.318l-27.018 27.019L430.96 490.4l-9.82-9.677c-5.585-5.503-10.89-9.945-12.304-10.3-7.171-1.8-13.381 2.953-13.381 10.24 0 4.081.197 4.362 10.2 14.5l10.2 10.338-39.51 39.517-39.508 39.517-9.573-9.544c-10.243-10.211-13.149-11.842-18.474-10.372-3.668 1.013-5.83 3.217-6.936 7.074-1.458 5.082.28 8.137 10.41 18.299l9.545 9.574-27.263 27.251-27.263 27.252-9.323-9.208c-5.128-5.064-10.217-9.661-11.31-10.216-4.226-2.147-10.521-.394-13.413 3.734-.78 1.114-1.419 3.85-1.419 6.08 0 4.021.114 4.168 14.769 18.92 9.702 9.767 15.687 15.104 17.447 15.56 6.824 1.769.584 7.61 129.61-121.307l121.372-121.268h104.528L457.272 598.726c-89.25 89.3-165.26 164.947-168.91 168.105-10.378 8.975-18.889 12.267-31.544 12.2-4.436-.023-9.294-.684-12.456-1.695z" transform="scale(.24866)"/><path style="fill:#2a7fff;stroke-width:.909091" d="m596.106 203.833-90.697-90.7 11.167-11.04c11.072-10.945 14.004-12.841 18.197-11.765 1.125.289 41.011 39.508 88.636 87.155 93.031 93.073 88.507 88.08 85.29 94.153-.714 1.35-5.934 7.054-11.598 12.676l-10.299 10.221z" transform="scale(.24866)"/><path style="fill:#ff8080;stroke-width:.909091" d="m637.74 161.83-49.03-49.036 4.455-1.971c2.451-1.084 30.25-13.793 61.777-28.242l57.322-26.27 16.368-16.23c9.002-8.926 17.677-16.891 19.277-17.7 3.877-1.96 11.641-1.843 16.241.247 11.746 5.335 18.358 19.797 13.47 29.463-.81 1.6-8.772 10.273-17.694 19.273l-16.222 16.363-27.862 60.91c-15.324 33.5-28.134 61.206-28.467 61.57-.333.362-22.669-21.407-49.636-48.377z" transform="scale(.24866)"/><path style="fill:#d7eef4;stroke-width:.909091" d="M277.273 266.976c160.33-160.151 151.997-152.282 164.88-155.712 10.617-2.827 24.095-.983 33.95 4.646 5.977 3.413 201.835 198.855 206.738 206.297 6.65 10.097 8.967 24.102 5.895 35.64-2.795 10.499-6.3 15.166-27.734 36.926l-20.371 20.682H535.918l33.31-33.41c18.32-18.375 33.76-34.302 34.313-35.394.552-1.092 1.004-3.722 1.004-5.843 0-3.757-.363-4.224-13.863-17.86-7.625-7.701-15.055-14.628-16.512-15.393-3.623-1.903-9.272-1.048-12.162 1.842-1.626 1.626-2.385 3.563-2.706 6.906l-.446 4.647 10.316 10.456 10.317 10.457-27.234 27.245-27.234 27.246-9.101-8.987c-10.225-10.095-11.599-11.003-16.647-11.003-4.187 0-7.603 2.331-9.254 6.317-2.192 5.294-.763 7.972 9.962 18.664l9.977 9.946-1.956 2.082-1.955 2.082-188.705-.004-188.706-.004z" transform="scale(.24866)"/></svg>