<?xml version="1.0" encoding="UTF-8" standalone="no"?>
<svg
   width="800"
   height="800"
   viewBox="0 0 32 32"
   data-name="Layer 2"
   version="1.1"
   id="svg2"
   sodipodi:docname="Birthday.svg"
   inkscape:version="1.4.3 (0d15f75, 2025-12-25)"
   xmlns:inkscape="http://www.inkscape.org/namespaces/inkscape"
   xmlns:sodipodi="http://sodipodi.sourceforge.net/DTD/sodipodi-0.dtd"
   xmlns="http://www.w3.org/2000/svg"
   xmlns:svg="http://www.w3.org/2000/svg">
  <defs
     id="defs2" />
  <sodipodi:namedview
     id="namedview2"
     pagecolor="#ffffff"
     bordercolor="#000000"
     borderopacity="0.25"
     inkscape:showpageshadow="2"
     inkscape:pageopacity="0.0"
     inkscape:pagecheckerboard="0"
     inkscape:deskcolor="#d1d1d1"
     inkscape:zoom="1.1"
     inkscape:cx="400"
     inkscape:cy="400.45455"
     inkscape:window-width="1024"
     inkscape:window-height="1186"
     inkscape:window-x="1754"
     inkscape:window-y="89"
     inkscape:window-maximized="0"
     inkscape:current-layer="svg2" />
  <path
     d="m20.65 26.08-.06-.18-.08-.16-.12-.14a.92.92 0 0 0-1.32 0l-.12.14-.08.16a1.27 1.27 0 0 0 0 .18.6.6 0 0 0 0 .19.92.92 0 0 0 .07.35 1 1 0 0 0 .21.3.82.82 0 0 0 .3.21 1 1 0 0 0 .36.07h.18l.18-.06.16-.08a.59.59 0 0 0 .14-.12.82.82 0 0 0 .21-.3.92.92 0 0 0 .07-.35 1.23 1.23 0 0 0-.1-.21zM13.18 26.08l-.06-.18-.12-.16-.12-.14a.92.92 0 0 0-1.32 0l-.12.14-.08.16a1.27 1.27 0 0 0 0 .18.6.6 0 0 0 0 .19.92.92 0 0 0 .07.35 1 1 0 0 0 .21.3.82.82 0 0 0 .3.21 1 1 0 0 0 .36.07h.18l.18-.06.16-.08a.59.59 0 0 0 .14-.12.82.82 0 0 0 .21-.3.92.92 0 0 0 .07-.35 1.23 1.23 0 0 0-.06-.21zM9.45 22.34l-.06-.18-.08-.16-.12-.14a.92.92 0 0 0-1.32 0l-.12.14-.08.16a1.27 1.27 0 0 0 0 .18.6.6 0 0 0 0 .19.92.92 0 0 0 .07.35 1 1 0 0 0 .21.3.82.82 0 0 0 .3.21 1 1 0 0 0 .36.07h.18l.18-.06.03-.1a.59.59 0 0 0 .14-.12.82.82 0 0 0 .21-.3.92.92 0 0 0 .07-.35 1.23 1.23 0 0 0 .03-.19zM16.92 22.34l-.06-.18-.08-.16-.12-.14a.92.92 0 0 0-1.32 0l-.12.14-.08.16a1.27 1.27 0 0 0 0 .18.6.6 0 0 0 0 .19.92.92 0 0 0 .07.35 1 1 0 0 0 .21.3.82.82 0 0 0 .3.21 1 1 0 0 0 .36.07h.18l.18-.06.16-.08a.59.59 0 0 0 .14-.12.82.82 0 0 0 .21-.3.92.92 0 0 0 .07-.35 1.23 1.23 0 0 0-.1-.21zM19.72 17.25l-.06-.18-.08-.16-.12-.14a.92.92 0 0 0-1.32 0l-.12.14-.08.16a1.27 1.27 0 0 0 0 .18.6.6 0 0 0 0 .19.92.92 0 0 0 .07.35 1 1 0 0 0 .21.3.82.82 0 0 0 .3.21 1 1 0 0 0 .36.07h.18l.18-.06.16-.08a.59.59 0 0 0 .14-.12.82.82 0 0 0 .21-.3.92.92 0 0 0 .07-.35 1.23 1.23 0 0 0-.1-.21zM14.12 17.25l-.06-.18-.06-.15-.12-.14a.92.92 0 0 0-1.32 0l-.12.14-.08.16a1.27 1.27 0 0 0 0 .18.6.6 0 0 0 0 .19.92.92 0 0 0 .07.35 1 1 0 0 0 .21.3.82.82 0 0 0 .3.21 1 1 0 0 0 .36.07h.18l.18-.06.16-.08a.59.59 0 0 0 .14-.12.82.82 0 0 0 .21-.3.92.92 0 0 0 .07-.35 1.23 1.23 0 0 0-.12-.22zM24.39 22.34l-.06-.18-.08-.16-.12-.14a.92.92 0 0 0-1.32 0l-.12.14-.08.16a1.27 1.27 0 0 0 0 .18.6.6 0 0 0 0 .19.92.92 0 0 0 .07.35 1 1 0 0 0 .21.3.82.82 0 0 0 .3.21 1 1 0 0 0 .36.07h.18l.18-.06.09-.1a.59.59 0 0 0 .14-.12.82.82 0 0 0 .21-.3.92.92 0 0 0 .07-.35 1.23 1.23 0 0 0-.03-.19z"
     id="path1" />
  <path
     d="M7.6 17.86a.93.93 0 0 0 .93-.93V16a2.34 2.34 0 0 0 1.86.95 2.61 2.61 0 0 0 2.15-1.31c.35-.47.46-.56.65-.56s.3.09.65.56A2.61 2.61 0 0 0 16 16.93a2.61 2.61 0 0 0 2.15-1.31c.35-.47.46-.56.65-.56s.3.09.66.56a2.61 2.61 0 0 0 2.15 1.31 2.35 2.35 0 0 0 1.87-1v.95a.93.93 0 1 0 1.87 0V13.2a2.8 2.8 0 0 0-1.86-2.62v-2l.39-.39a3.74 3.74 0 0 0 0-5.28l-.66-.66a.93.93 0 0 0-1.32 0l-.66.66a3.74 3.74 0 0 0 0 5.28l.39.39v1.82h-4.69V8.6l.39-.39a3.74 3.74 0 0 0 0-5.28l-.66-.66a.93.93 0 0 0-1.32 0l-.66.66a3.73 3.73 0 0 0 0 5.28l.39.39v1.8H10.4V8.6l.39-.39a3.73 3.73 0 0 0 0-5.28l-.66-.66a.93.93 0 0 0-1.32 0l-.66.66a3.74 3.74 0 0 0 0 5.28l.39.39v2a2.8 2.8 0 0 0-1.87 2.6v3.73a.93.93 0 0 0 .93.93zM16 4.26a1.87 1.87 0 0 1 0 2.64 1.87 1.87 0 0 1 0-2.64zm6.54 0a1.87 1.87 0 0 1 0 2.64 1.87 1.87 0 0 1 0-2.64zm-13.07 0a1.87 1.87 0 0 1 0 2.64 1.87 1.87 0 0 1 0-2.64zm0 8h13.06a.93.93 0 0 1 .93.93v.21a3.29 3.29 0 0 0-1.21 1.1c-.35.47-.46.56-.66.56s-.3-.09-.66-.56a2.61 2.61 0 0 0-2.15-1.31 2.61 2.61 0 0 0-2.15 1.31c-.35.47-.46.56-.65.56s-.3-.09-.65-.56a2.61 2.61 0 0 0-2.15-1.31A2.61 2.61 0 0 0 11 14.5c-.35.47-.46.56-.65.56s-.3-.09-.65-.56a3.29 3.29 0 0 0-1.21-1.1v-.2a.93.93 0 0 1 .98-.94zM29.07 28.13h-.93V21.6a2.8 2.8 0 0 0-2.8-2.8H6.67a2.8 2.8 0 0 0-2.8 2.8v6.53h-.94a.93.93 0 1 0 0 1.87h26.14a.93.93 0 1 0 0-1.87zm-22.4-7.46h18.66a.93.93 0 0 1 .93.93v1.07a3.78 3.78 0 0 0-1.6 1.07c-.46.46-.68.66-1.21.66s-.75-.2-1.21-.66a3.25 3.25 0 0 0-5.05 0c-.46.46-.68.66-1.21.66s-.75-.2-1.21-.66a3.25 3.25 0 0 0-5.05 0c-.46.46-.68.66-1.2.66s-.75-.2-1.21-.66a3.78 3.78 0 0 0-1.59-1.07V21.6a.93.93 0 0 1 .95-.93zm-.93 7.46V24.8l.27.26a3.25 3.25 0 0 0 5.05 0c.46-.46.68-.66 1.2-.66s.75.2 1.21.66a3.25 3.25 0 0 0 5.05 0c.46-.46.68-.66 1.21-.66s.75.2 1.21.66a3.25 3.25 0 0 0 5.06 0l.28-.27v3.34z"
     id="path2" />
  <path
     style="fill:#ffff00;stroke-width:0.909091"
     d="m 233.59823,167.99267 c -4.05334,-4.78202 -8.56066,-15.46861 -9.40687,-22.30312 -1.17906,-9.5228 0.18138,-17.68304 4.36,-26.15228 1.97577,-4.0045 4.68365,-8.29996 6.01751,-9.54545 l 2.4252,-2.26455 2.70889,3.18182 c 9.03535,10.61276 12.34944,28.05559 8.0037,42.12543 -1.79051,5.79703 -8.49493,17.00683 -10.54831,17.63682 -0.56291,0.1727 -2.16496,-1.0327 -3.56012,-2.67867 z"
     id="path3"
     transform="scale(0.04)" />
  <path
     style="fill:#ffff00;stroke-width:0.909091"
     d="m 396.63726,167.61177 c -8.80748,-12.09021 -11.62239,-24.8493 -8.45038,-38.30292 1.54689,-6.56091 5.51041,-14.75807 9.28969,-19.2125 l 2.61781,-3.08546 2.78858,3.54001 c 6.12557,7.77621 10.27198,19.48021 10.27198,28.99455 0,9.66201 -4.42936,21.78337 -10.75424,29.42995 l -2.5363,3.06632 z"
     id="path4"
     transform="scale(0.04)" />
  <path
     style="fill:#ff00ff;stroke-width:0.909091"
     d="m 560.70788,168.48254 c -6.27105,-7.9616 -10.25333,-19.20047 -10.25333,-28.93709 0,-9.93511 4.18161,-21.68627 10.31753,-28.99435 l 2.97206,-3.53982 3.36371,4.58229 c 13.06091,17.79253 12.44936,40.86636 -1.5319,57.79806 l -2.12501,2.57344 z"
     id="path5"
     transform="scale(0.04)" />
  <path
     style="fill:#ff00ff;stroke-width:0.909091"
     d="M 254.51344,374.71284 C 251.66799,372.93773 246.5419,367.15501 241.47125,360 236.58028,353.09854 225.8019,342.81886 218.78494,338.36336 l -6.6696,-4.23495 0.6106,-5.01875 c 1.145,-9.41116 6.06665,-16.67799 13.6377,-20.13608 3.47974,-1.58938 10.91931,-1.6614 172.72727,-1.67201 l 169.09091,-0.0111 4.54545,2.14887 c 8.17878,3.86651 13.12479,11.49698 13.16186,20.30543 l 0.02,4.74479 -5.22727,3.33174 c -8.93215,5.69313 -15.52369,12.08042 -24.79842,24.02996 -9.51469,12.25871 -13.31982,15.23206 -18.0059,14.06988 -3.18136,-0.789 -10.56272,-8.46558 -16.26396,-16.91446 -5.26725,-7.80572 -14.07621,-16.31792 -21.38232,-20.66196 -11.31334,-6.72664 -26.2444,-10.08297 -37.25536,-8.37456 -19.62899,3.04554 -33.98603,12.48978 -47.09621,30.98043 -6.60514,9.31592 -11.388,14.14055 -14.88932,15.01932 -4.52901,1.13671 -10.93133,-4.52451 -19.6195,-17.34846 -10.71195,-15.81108 -26.71629,-25.88186 -45.59278,-28.68939 -5.50687,-0.81904 -8.31096,-0.73615 -15.1763,0.44861 -19.00148,3.27912 -32.14067,11.98142 -44.72077,29.61931 -10.62962,14.90323 -15.58875,18.31789 -21.36754,14.71284 z"
     id="path6"
     transform="scale(0.04)" />
  <path
     style="fill:#ff00ff;stroke-width:0.909091"
     d="m 581.36364,609.01988 c -7.74393,-0.86521 -12.1106,-3.74064 -25.40755,-16.73077 -17.03579,-16.64269 -27.88755,-23.22875 -45.17172,-27.41523 -9.45118,-2.28921 -26.83714,-2.09728 -36.96742,0.4081 -16.98422,4.20046 -27.3911,10.57383 -43.53526,26.66177 -14.77761,14.72615 -19.18144,17.1796 -30.65416,17.078 -4.29515,-0.038 -9.12699,-0.5494 -10.73746,-1.13637 -4.84658,-1.76642 -13.79747,-8.83964 -20.16382,-15.93395 -23.36935,-26.04151 -56.6585,-35.27729 -88.68207,-24.60406 -13.92657,4.64163 -20.20574,8.83309 -35.70921,23.83653 -16.77966,16.23848 -19.64612,17.88525 -31.15315,17.89741 -11.52278,0.0122 -15.89595,-2.36159 -30.67375,-16.6498 -12.627,-12.20868 -21.34511,-18.49433 -32.37372,-23.34104 l -6.95253,-3.05541 v -13.76162 c 0,-16.29082 1.18548,-21.46671 6.18767,-27.01572 1.84678,-2.04866 5.40324,-4.67938 7.90324,-5.84604 l 4.54545,-2.12119 237.72727,0.031 c 196.24226,0.0256 238.3225,0.24344 241.13821,1.24827 5.02841,1.79446 9.40404,5.48218 12.25061,10.32466 2.50594,4.263 2.52028,4.38185 2.52028,20.89968 v 16.61231 l -6.93711,3.01858 c -10.53303,4.58329 -18.99529,10.6931 -31.72075,22.9026 -6.36112,6.1032 -13.38474,12.16276 -15.60803,13.4657 -4.6849,2.74554 -12.60027,4.03378 -19.82502,3.22657 z M 222.13707,586.2747 c 1.57461,-0.54891 2.86294,-1.46936 2.86296,-2.04545 1e-5,-0.57609 1.38612,-2.1534 3.08025,-3.50515 3.90142,-3.11295 6.73256,-8.93458 7.91467,-16.27489 1.122,-6.96695 -0.39316,-11.86251 -5.37963,-17.38195 -5.0628,-5.60391 -9.43179,-7.47914 -17.4335,-7.48269 -7.55288,-0.003 -11.03777,1.32902 -16.21393,6.19902 -4.65201,4.37687 -5.60893,6.9312 -5.56435,14.85308 0.0452,8.03308 1.23741,12.1291 4.94529,16.99038 5.63098,7.3826 17.75481,11.44812 25.78824,8.64765 z m 188.54771,-0.81431 c 7.98729,-2.98842 15.15261,-12.26677 15.20435,-19.68806 0.0325,-4.66312 -6.48948,-17.73806 -10.49491,-21.03968 -11.34886,-9.35469 -28.22836,-6.58774 -35.49929,5.81918 -2.21137,3.77341 -2.37731,4.72528 -1.93889,11.12165 0.57753,8.42616 2.37896,13.07858 6.86108,17.71963 7.13437,7.38737 16.48043,9.5795 25.86766,6.06728 z m 185.48078,0.55097 c 3.96117,-1.708 11.13865,-9.28678 12.97434,-13.69974 4.51076,-10.84378 -0.91781,-24.9236 -11.86717,-30.7793 -4.85188,-2.59478 -15.76909,-2.74216 -20.45455,-0.27613 -4.00771,2.10931 -8.85706,6.63771 -10.53211,9.83503 -1.76748,3.37377 -1.70152,16.15468 0.10569,20.47995 3.19789,7.65361 9.67375,13.30286 16.86786,14.71475 6.07967,1.19317 9.67961,1.11659 12.90594,-0.27456 z"
     id="path7"
     transform="scale(0.04)" />
  <path
     style="fill:#ffff00;stroke-width:0.909091"
     d="m 560.47151,167.21742 c -11.58958,-15.74326 -12.35011,-36.293 -1.93932,-52.40052 1.95747,-3.02858 3.96344,-5.75645 4.45773,-6.06194 2.04494,-1.26384 9.27728,11.28123 11.56311,20.05713 3.38159,12.98279 -0.17804,28.75307 -8.97654,39.76897 l -2.13412,2.67196 z"
     id="path8"
     transform="scale(0.04)" />
  <path
     style="fill:#0000ff;stroke-width:0.909091"
     d="m 144.09091,662.14728 v -40.58 L 154.79726,631.92 c 12.07558,11.67673 19.43669,16.37262 32.47547,20.71715 24.49576,8.16202 50.91164,4.52731 72.38353,-9.95966 3.18906,-2.15164 10.50283,-8.69016 16.25283,-14.53006 14.76283,-14.99363 19.13006,-17.40269 31.43186,-17.33847 10.62511,0.0555 14.36041,2.18776 29.27964,16.71413 13.36406,13.01217 17.38651,16.12355 27.14325,20.99539 22.78345,11.37648 49.98976,11.21563 73.30358,-0.43341 8.46913,-4.2317 14.53673,-9.05014 26.26087,-20.85444 8.14374,-8.19942 11.97314,-11.349 16.52054,-13.58767 5.6037,-2.7587 6.37191,-2.8969 14.39898,-2.59031 11.91165,0.45496 14.8107,2.10002 29.387,16.67563 16.00724,16.0065 26.3403,22.51806 42.72883,26.92635 9.55621,2.57048 29.56078,2.83355 38.93537,0.51201 16.3809,-4.0566 29.66814,-12.00198 42.64699,-25.50166 l 8.85508,-9.21043 0.009,41.13636 0.009,41.13636 H 400.45455 144.09091 Z m 173.43829,16.44301 c 7.32071,-3.05338 13.88015,-12.56888 13.7551,-19.95393 -0.15387,-9.08688 -7.24636,-19.77805 -15.74636,-23.73596 -5.04196,-2.34773 -11.41461,-2.80318 -17.10589,-1.22258 -4.59444,1.276 -10.69885,6.09215 -13.25201,10.45537 -1.86783,3.19202 -2.05207,4.42277 -1.64689,11.00178 0.25092,4.07423 1.05296,8.83587 1.7823,10.58142 1.8721,4.4806 7.26717,10.16063 11.76609,12.38756 4.75591,2.35415 15.36449,2.60647 20.44766,0.48634 z m 189.26283,-0.84977 c 6.7244,-3.4075 11.69342,-10.83533 11.97194,-17.89593 0.21466,-5.44186 -4.16603,-15.31186 -9.00146,-20.28089 -6.00109,-6.16692 -15.26999,-8.39159 -24.02902,-5.76732 -4.09299,1.22629 -11.07516,7.01483 -13.0367,10.80802 -1.61388,3.1209 -1.7887,14.68504 -0.2891,19.12358 1.88578,5.58159 6.88275,11.43685 11.88967,13.93191 6.58256,3.28023 16.11316,3.31439 22.49467,0.0806 z"
     id="path9"
     transform="scale(0.04)" />
</svg>
