<svg width="800" height="800" viewBox="0 0 32 32" data-name="Layer 2" xmlns="http://www.w3.org/2000/svg"><path d="m20.65 26.08-.06-.18-.08-.16-.12-.14a.92.92 0 0 0-1.32 0l-.12.14-.08.16a1.27 1.27 0 0 0 0 .18.6.6 0 0 0 0 .19.92.92 0 0 0 .07.35 1 1 0 0 0 .21.3.82.82 0 0 0 .3.21 1 1 0 0 0 .36.07h.18l.18-.06.16-.08a.59.59 0 0 0 .14-.12.82.82 0 0 0 .21-.3.92.92 0 0 0 .07-.35 1.23 1.23 0 0 0-.1-.21zm-7.47 0-.06-.18-.12-.16-.12-.14a.92.92 0 0 0-1.32 0l-.12.14-.08.16a1.27 1.27 0 0 0 0 .18.6.6 0 0 0 0 .19.92.92 0 0 0 .07.35 1 1 0 0 0 .21.3.82.82 0 0 0 .3.21 1 1 0 0 0 .36.07h.18l.18-.06.16-.08a.59.59 0 0 0 .14-.12.82.82 0 0 0 .21-.3.92.92 0 0 0 .07-.35 1.23 1.23 0 0 0-.06-.21zm-3.73-3.74-.06-.18-.08-.16-.12-.14a.92.92 0 0 0-1.32 0l-.12.14-.08.16a1.27 1.27 0 0 0 0 .18.6.6 0 0 0 0 .19.92.92 0 0 0 .07.35 1 1 0 0 0 .21.3.82.82 0 0 0 .3.21 1 1 0 0 0 .36.07h.18l.18-.06.03-.1a.59.59 0 0 0 .14-.12.82.82 0 0 0 .21-.3.92.92 0 0 0 .07-.35 1.23 1.23 0 0 0 .03-.19zm7.47 0-.06-.18-.08-.16-.12-.14a.92.92 0 0 0-1.32 0l-.12.14-.08.16a1.27 1.27 0 0 0 0 .18.6.6 0 0 0 0 .19.92.92 0 0 0 .07.35 1 1 0 0 0 .21.3.82.82 0 0 0 .3.21 1 1 0 0 0 .36.07h.18l.18-.06.16-.08a.59.59 0 0 0 .14-.12.82.82 0 0 0 .21-.3.92.92 0 0 0 .07-.35 1.23 1.23 0 0 0-.1-.21zm2.8-5.09-.06-.18-.08-.16-.12-.14a.92.92 0 0 0-1.32 0l-.12.14-.08.16a1.27 1.27 0 0 0 0 .18.6.6 0 0 0 0 .19.92.92 0 0 0 .07.35 1 1 0 0 0 .21.3.82.82 0 0 0 .3.21 1 1 0 0 0 .36.07h.18l.18-.06.16-.08a.59.59 0 0 0 .14-.12.82.82 0 0 0 .21-.3.92.92 0 0 0 .07-.35 1.23 1.23 0 0 0-.1-.21zm-5.6 0-.06-.18-.06-.15-.12-.14a.92.92 0 0 0-1.32 0l-.12.14-.08.16a1.27 1.27 0 0 0 0 .18.6.6 0 0 0 0 .19.92.92 0 0 0 .07.35 1 1 0 0 0 .21.3.82.82 0 0 0 .3.21 1 1 0 0 0 .36.07h.18l.18-.06.16-.08a.59.59 0 0 0 .14-.12.82.82 0 0 0 .21-.3.92.92 0 0 0 .07-.35 1.23 1.23 0 0 0-.12-.22zm10.27 5.09-.06-.18-.08-.16-.12-.14a.92.92 0 0 0-1.32 0l-.12.14-.08.16a1.27 1.27 0 0 0 0 .18.6.6 0 0 0 0 .19.92.92 0 0 0 .07.35 1 1 0 0 0 .21.3.82.82 0 0 0 .3.21 1 1 0 0 0 .36.07h.18l.18-.06.09-.1a.59.59 0 0 0 .14-.12.82.82 0 0 0 .21-.3.92.92 0 0 0 .07-.35 1.23 1.23 0 0 0-.03-.19z"/><path d="M7.6 17.86a.93.93 0 0 0 .93-.93V16a2.34 2.34 0 0 0 1.86.95 2.61 2.61 0 0 0 2.15-1.31c.35-.47.46-.56.65-.56s.3.09.65.56A2.61 2.61 0 0 0 16 16.93a2.61 2.61 0 0 0 2.15-1.31c.35-.47.46-.56.65-.56s.3.09.66.56a2.61 2.61 0 0 0 2.15 1.31 2.35 2.35 0 0 0 1.87-1v.95a.93.93 0 1 0 1.87 0V13.2a2.8 2.8 0 0 0-1.86-2.62v-2l.39-.39a3.74 3.74 0 0 0 0-5.28l-.66-.66a.93.93 0 0 0-1.32 0l-.66.66a3.74 3.74 0 0 0 0 5.28l.39.39v1.82h-4.69V8.6l.39-.39a3.74 3.74 0 0 0 0-5.28l-.66-.66a.93.93 0 0 0-1.32 0l-.66.66a3.73 3.73 0 0 0 0 5.28l.39.39v1.8H10.4V8.6l.39-.39a3.73 3.73 0 0 0 0-5.28l-.66-.66a.93.93 0 0 0-1.32 0l-.66.66a3.74 3.74 0 0 0 0 5.28l.39.39v2a2.8 2.8 0 0 0-1.87 2.6v3.73a.93.93 0 0 0 .93.93zM16 4.26a1.87 1.87 0 0 1 0 2.64 1.87 1.87 0 0 1 0-2.64zm6.54 0a1.87 1.87 0 0 1 0 2.64 1.87 1.87 0 0 1 0-2.64zm-13.07 0a1.87 1.87 0 0 1 0 2.64 1.87 1.87 0 0 1 0-2.64zm0 8h13.06a.93.93 0 0 1 .93.93v.21a3.29 3.29 0 0 0-1.21 1.1c-.35.47-.46.56-.66.56s-.3-.09-.66-.56a2.61 2.61 0 0 0-2.15-1.31 2.61 2.61 0 0 0-2.15 1.31c-.35.47-.46.56-.65.56s-.3-.09-.65-.56a2.61 2.61 0 0 0-2.15-1.31A2.61 2.61 0 0 0 11 14.5c-.35.47-.46.56-.65.56s-.3-.09-.65-.56a3.29 3.29 0 0 0-1.21-1.1v-.2a.93.93 0 0 1 .98-.94zm19.6 15.87h-.93V21.6a2.8 2.8 0 0 0-2.8-2.8H6.67a2.8 2.8 0 0 0-2.8 2.8v6.53h-.94a.93.93 0 1 0 0 1.87h26.14a.93.93 0 1 0 0-1.87zm-22.4-7.46h18.66a.93.93 0 0 1 .93.93v1.07a3.78 3.78 0 0 0-1.6 1.07c-.46.46-.68.66-1.21.66s-.75-.2-1.21-.66a3.25 3.25 0 0 0-5.05 0c-.46.46-.68.66-1.21.66s-.75-.2-1.21-.66a3.25 3.25 0 0 0-5.05 0c-.46.46-.68.66-1.2.66s-.75-.2-1.21-.66a3.78 3.78 0 0 0-1.59-1.07V21.6a.93.93 0 0 1 .95-.93zm-.93 7.46V24.8l.27.26a3.25 3.25 0 0 0 5.05 0c.46-.46.68-.66 1.2-.66s.75.2 1.21.66a3.25 3.25 0 0 0 5.05 0c.46-.46.68-.66 1.21-.66s.75.2 1.21.66a3.25 3.25 0 0 0 5.06 0l.28-.27v3.34z"/><path style="fill:#ff0;stroke-width:.909091" d="M233.598 167.993c-4.053-4.782-8.56-15.469-9.407-22.303-1.179-9.523.182-17.683 4.36-26.153 1.976-4.004 4.684-8.3 6.018-9.545l2.425-2.265 2.709 3.182c9.035 10.613 12.35 28.056 8.004 42.126-1.79 5.797-8.495 17.006-10.549 17.636-.563.173-2.165-1.032-3.56-2.678zM396.637 167.612c-8.807-12.09-11.622-24.85-8.45-38.303 1.547-6.561 5.51-14.758 9.29-19.213l2.617-3.085 2.789 3.54c6.126 7.776 10.272 19.48 10.272 28.994 0 9.662-4.43 21.784-10.754 29.43l-2.537 3.067z" transform="scale(.04)"/><path style="fill:#f0f;stroke-width:.909091" d="M560.708 168.483c-6.271-7.962-10.253-19.2-10.253-28.938 0-9.935 4.181-21.686 10.317-28.994l2.972-3.54 3.364 4.583c13.06 17.792 12.45 40.866-1.532 57.798l-2.125 2.573zM254.513 374.713c-2.845-1.775-7.971-7.558-13.042-14.713-4.89-6.901-15.67-17.181-22.686-21.637l-6.67-4.235.61-5.018c1.146-9.412 6.068-16.678 13.639-20.136 3.48-1.59 10.919-1.662 172.727-1.672l169.09-.012 4.546 2.15c8.18 3.866 13.125 11.496 13.162 20.305l.02 4.745-5.227 3.331c-8.932 5.693-15.524 12.08-24.799 24.03-9.514 12.259-13.32 15.232-18.005 14.07-3.182-.789-10.563-8.465-16.264-16.914-5.268-7.806-14.077-16.318-21.383-20.662-11.313-6.727-26.244-10.083-37.255-8.375-19.63 3.046-33.986 12.49-47.096 30.98-6.605 9.317-11.388 14.141-14.89 15.02-4.529 1.137-10.931-4.525-19.62-17.349-10.711-15.81-26.715-25.881-45.592-28.689-5.507-.819-8.31-.736-15.176.449-19.002 3.279-32.14 11.981-44.721 29.619-10.63 14.903-15.589 18.318-21.368 14.713zM581.364 609.02c-7.744-.865-12.111-3.74-25.408-16.73-17.036-16.644-27.887-23.23-45.172-27.416-9.45-2.29-26.837-2.097-36.967.408-16.984 4.2-27.391 10.574-43.535 26.662-14.778 14.726-19.182 17.18-30.654 17.078-4.296-.038-9.127-.55-10.738-1.137-4.847-1.766-13.797-8.84-20.164-15.934-23.37-26.041-56.658-35.277-88.682-24.604-13.926 4.642-20.206 8.833-35.709 23.837-16.78 16.238-19.646 17.885-31.153 17.897-11.523.013-15.896-2.361-30.674-16.65-12.627-12.208-21.345-18.494-32.374-23.34l-6.952-3.056v-13.762c0-16.29 1.185-21.466 6.187-27.015 1.847-2.049 5.404-4.68 7.904-5.846l4.545-2.122 237.727.031c196.243.026 238.323.244 241.139 1.249 5.028 1.794 9.404 5.482 12.25 10.324 2.506 4.263 2.52 4.382 2.52 20.9v16.612l-6.937 3.019c-10.533 4.583-18.995 10.693-31.72 22.903-6.361 6.103-13.385 12.162-15.608 13.465-4.685 2.746-12.6 4.034-19.825 3.227zm-359.227-22.745c1.575-.55 2.863-1.47 2.863-2.046 0-.576 1.386-2.153 3.08-3.505 3.902-3.113 6.733-8.934 7.915-16.275 1.122-6.967-.393-11.862-5.38-17.382-5.062-5.604-9.431-7.479-17.433-7.482-7.553-.003-11.038 1.329-16.214 6.199-4.652 4.376-5.609 6.93-5.564 14.853.045 8.033 1.237 12.129 4.945 16.99 5.63 7.383 17.755 11.448 25.788 8.648zm188.548-.815c7.987-2.988 15.152-12.266 15.204-19.688.033-4.663-6.49-17.738-10.495-21.04-11.349-9.354-28.228-6.587-35.5 5.82-2.21 3.773-2.376 4.725-1.938 11.121.578 8.427 2.379 13.08 6.861 17.72 7.134 7.387 16.48 9.58 25.868 6.067zm185.48.551c3.962-1.708 11.14-9.286 12.975-13.7 4.51-10.843-.918-24.923-11.867-30.779-4.852-2.594-15.77-2.742-20.455-.276-4.008 2.11-8.857 6.638-10.532 9.835-1.767 3.374-1.701 16.155.106 20.48 3.198 7.654 9.674 13.303 16.868 14.715 6.08 1.193 9.68 1.117 12.906-.275z" transform="scale(.04)"/><path style="fill:#ff0;stroke-width:.909091" d="M560.472 167.217c-11.59-15.743-12.35-36.293-1.94-52.4 1.958-3.029 3.964-5.757 4.458-6.062 2.045-1.264 9.277 11.281 11.563 20.057 3.382 12.983-.178 28.753-8.977 39.77l-2.134 2.671z" transform="scale(.04)"/><path style="fill:#00f;stroke-width:.909091" d="M144.09 662.147v-40.58l10.707 10.353c12.076 11.677 19.437 16.373 32.476 20.717 24.495 8.162 50.911 4.527 72.383-9.96 3.19-2.151 10.503-8.69 16.253-14.53 14.763-14.993 19.13-17.402 31.432-17.338 10.625.055 14.36 2.188 29.28 16.714 13.364 13.012 17.386 16.124 27.143 20.995 22.783 11.377 49.99 11.216 73.303-.433 8.47-4.232 14.537-9.05 26.261-20.854 8.144-8.2 11.973-11.35 16.52-13.588 5.605-2.759 6.373-2.897 14.4-2.59 11.911.455 14.81 2.1 29.387 16.675 16.007 16.007 26.34 22.518 42.729 26.927 9.556 2.57 29.56 2.833 38.935.512 16.38-4.057 29.668-12.002 42.647-25.502l8.855-9.21.01 41.136.008 41.136H144.091zm173.44 16.443c7.32-3.053 13.88-12.569 13.754-19.954-.154-9.087-7.246-19.778-15.746-23.736-5.042-2.347-11.415-2.803-17.106-1.222-4.594 1.276-10.699 6.092-13.252 10.455-1.868 3.192-2.052 4.423-1.647 11.002.251 4.074 1.053 8.836 1.782 10.581 1.873 4.481 7.268 10.161 11.767 12.388 4.755 2.354 15.364 2.606 20.447.486zm189.262-.85c6.724-3.407 11.693-10.835 11.972-17.895.215-5.442-4.166-15.312-9.001-20.281-6.002-6.167-15.27-8.392-24.03-5.768-4.093 1.227-11.075 7.015-13.036 10.808-1.614 3.121-1.789 14.685-.29 19.124 1.886 5.582 6.883 11.437 11.89 13.932 6.583 3.28 16.114 3.314 22.495.08z" transform="scale(.04)"/></svg>