<svg width="800" height="800" viewBox="0 0 32 32" data-name="Layer 2" xmlns="http://www.w3.org/2000/svg"><path d="m20.65 26.08-.06-.18-.08-.16-.12-.14a.92.92 0 0 0-1.32 0l-.12.14-.08.16a1.27 1.27 0 0 0 0 .18.6.6 0 0 0 0 .19.92.92 0 0 0 .07.35 1 1 0 0 0 .21.3.82.82 0 0 0 .3.21 1 1 0 0 0 .36.07h.18l.18-.06.16-.08a.59.59 0 0 0 .14-.12.82.82 0 0 0 .21-.3.92.92 0 0 0 .07-.35 1.23 1.23 0 0 0-.1-.21zM13.18 26.08l-.06-.18-.12-.16-.12-.14a.92.92 0 0 0-1.32 0l-.12.14-.08.16a1.27 1.27 0 0 0 0 .18.6.6 0 0 0 0 .19.92.92 0 0 0 .07.35 1 1 0 0 0 .21.3.82.82 0 0 0 .3.21 1 1 0 0 0 .36.07h.18l.18-.06.16-.08a.59.59 0 0 0 .14-.12.82.82 0 0 0 .21-.3.92.92 0 0 0 .07-.35 1.23 1.23 0 0 0-.06-.21zM9.45 22.34l-.06-.18-.08-.16-.12-.14a.92.92 0 0 0-1.32 0l-.12.14-.08.16a1.27 1.27 0 0 0 0 .18.6.6 0 0 0 0 .19.92.92 0 0 0 .07.35 1 1 0 0 0 .21.3.82.82 0 0 0 .3.21 1 1 0 0 0 .36.07h.18l.18-.06.03-.1a.59.59 0 0 0 .14-.12.82.82 0 0 0 .21-.3.92.92 0 0 0 .07-.35 1.23 1.23 0 0 0 .03-.19zM16.92 22.34l-.06-.18-.08-.16-.12-.14a.92.92 0 0 0-1.32 0l-.12.14-.08.16a1.27 1.27 0 0 0 0 .18.6.6 0 0 0 0 .19.92.92 0 0 0 .07.35 1 1 0 0 0 .21.3.82.82 0 0 0 .3.21 1 1 0 0 0 .36.07h.18l.18-.06.16-.08a.59.59 0 0 0 .14-.12.82.82 0 0 0 .21-.3.92.92 0 0 0 .07-.35 1.23 1.23 0 0 0-.1-.21zM19.72 17.25l-.06-.18-.08-.16-.12-.14a.92.92 0 0 0-1.32 0l-.12.14-.08.16a1.27 1.27 0 0 0 0 .18.6.6 0 0 0 0 .19.92.92 0 0 0 .07.35 1 1 0 0 0 .21.3.82.82 0 0 0 .3.21 1 1 0 0 0 .36.07h.18l.18-.06.16-.08a.59.59 0 0 0 .14-.12.82.82 0 0 0 .21-.3.92.92 0 0 0 .07-.35 1.23 1.23 0 0 0-.1-.21zM14.12 17.25l-.06-.18-.06-.15-.12-.14a.92.92 0 0 0-1.32 0l-.12.14-.08.16a1.27 1.27 0 0 0 0 .18.6.6 0 0 0 0 .19.92.92 0 0 0 .07.35 1 1 0 0 0 .21.3.82.82 0 0 0 .3.21 1 1 0 0 0 .36.07h.18l.18-.06.16-.08a.59.59 0 0 0 .14-.12.82.82 0 0 0 .21-.3.92.92 0 0 0 .07-.35 1.23 1.23 0 0 0-.12-.22zM24.39 22.34l-.06-.18-.08-.16-.12-.14a.92.92 0 0 0-1.32 0l-.12.14-.08.16a1.27 1.27 0 0 0 0 .18.6.6 0 0 0 0 .19.92.92 0 0 0 .07.35 1 1 0 0 0 .21.3.82.82 0 0 0 .3.21 1 1 0 0 0 .36.07h.18l.18-.06.09-.1a.59.59 0 0 0 .14-.12.82.82 0 0 0 .21-.3.92.92 0 0 0 .07-.35 1.23 1.23 0 0 0-.03-.19z"/><path d="M7.6 17.86a.93.93 0 0 0 .93-.93V16a2.34 2.34 0 0 0 1.86.95 2.61 2.61 0 0 0 2.15-1.31c.35-.47.46-.56.65-.56s.3.09.65.56A2.61 2.61 0 0 0 16 16.93a2.61 2.61 0 0 0 2.15-1.31c.35-.47.46-.56.65-.56s.3.09.66.56a2.61 2.61 0 0 0 2.15 1.31 2.35 2.35 0 0 0 1.87-1v.95a.93.93 0 1 0 1.87 0V13.2a2.8 2.8 0 0 0-1.86-2.62v-2l.39-.39a3.74 3.74 0 0 0 0-5.28l-.66-.66a.93.93 0 0 0-1.32 0l-.66.66a3.74 3.74 0 0 0 0 5.28l.39.39v1.82h-4.69V8.6l.39-.39a3.74 3.74 0 0 0 0-5.28l-.66-.66a.93.93 0 0 0-1.32 0l-.66.66a3.73 3.73 0 0 0 0 5.28l.39.39v1.8H10.4V8.6l.39-.39a3.73 3.73 0 0 0 0-5.28l-.66-.66a.93.93 0 0 0-1.32 0l-.66.66a3.74 3.74 0 0 0 0 5.28l.39.39v2a2.8 2.8 0 0 0-1.87 2.6v3.73a.93.93 0 0 0 .93.93zM16 4.26a1.87 1.87 0 0 1 0 2.64 1.87 1.87 0 0 1 0-2.64zm6.54 0a1.87 1.87 0 0 1 0 2.64 1.87 1.87 0 0 1 0-2.64zm-13.07 0a1.87 1.87 0 0 1 0 2.64 1.87 1.87 0 0 1 0-2.64zm0 8h13.06a.93.93 0 0 1 .93.93v.21a3.29 3.29 0 0 0-1.21 1.1c-.35.47-.46.56-.66.56s-.3-.09-.66-.56a2.61 2.61 0 0 0-2.15-1.31 2.61 2.61 0 0 0-2.15 1.31c-.35.47-.46.56-.65.56s-.3-.09-.65-.56a2.61 2.61 0 0 0-2.15-1.31A2.61 2.61 0 0 0 11 14.5c-.35.47-.46.56-.65.56s-.3-.09-.65-.56a3.29 3.29 0 0 0-1.21-1.1v-.2a.93.93 0 0 1 .98-.94zM29.07 28.13h-.93V21.6a2.8 2.8 0 0 0-2.8-2.8H6.67a2.8 2.8 0 0 0-2.8 2.8v6.53h-.94a.93.93 0 1 0 0 1.87h26.14a.93.93 0 1 0 0-1.87zm-22.4-7.46h18.66a.93.93 0 0 1 .93.93v1.07a3.78 3.78 0 0 0-1.6 1.07c-.46.46-.68.66-1.21.66s-.75-.2-1.21-.66a3.25 3.25 0 0 0-5.05 0c-.46.46-.68.66-1.21.66s-.75-.2-1.21-.66a3.25 3.25 0 0 0-5.05 0c-.46.46-.68.66-1.2.66s-.75-.2-1.21-.66a3.78 3.78 0 0 0-1.59-1.07V21.6a.93.93 0 0 1 .95-.93zm-.93 7.46V24.8l.27.26a3.25 3.25 0 0 0 5.05 0c.46-.46.68-.66 1.2-.66s.75.2 1.21.66a3.25 3.25 0 0 0 5.05 0c.46-.46.68-.66 1.21-.66s.75.2 1.21.66a3.25 3.25 0 0 0 5.06 0l.28-.27v3.34z"/></svg>