<svg viewBox="0 0 489.472 489.472" xml:space="preserve" xmlns="http://www.w3.org/2000/svg"><path d="M435.264 328.84c-.016-.136-.064-.584-.112-.992-.016-.168 0-.336-.024-.504 6.296-11.656 9.608-24.696 9.608-37.872 0-13.176-3.312-26.216-9.6-37.872 1.352-13.176-.576-26.488-5.624-38.664-5.048-12.168-13.088-22.944-23.36-31.312a78.657 78.657 0 0 0-8.08-18.168l19.56-19.56-39.008-23.408c5.448-11.264 10.112-26.768 10.112-47.016 0-47.696-25.848-69.304-26.944-70.2L357.784.008l-94.68 47.336c-5.208-3.672-11.528-5.872-18.368-5.872-6.848 0-13.16 2.2-18.368 5.872L131.688 0l-4.008 3.264c-1.104.904-26.944 22.512-26.944 70.208 0 20.248 4.664 35.752 10.112 47L71.84 143.88l19.56 19.56a78.96 78.96 0 0 0-8.08 18.168c-10.272 8.368-18.312 19.136-23.36 31.312-4.856 11.712-6.744 24.48-5.688 37.168l-.072.008c.016.136.064.584.112.992.024.176.008.344.024.512-6.288 11.656-9.6 24.696-9.6 37.872 0 13.176 3.312 26.216 9.6 37.872-1.352 13.176.576 26.488 5.624 38.664 5.048 12.168 13.088 22.944 23.36 31.312 3.8 12.696 10.672 24.248 19.992 33.568s20.872 16.192 33.568 19.992c8.368 10.272 19.136 18.312 31.312 23.36 11.704 4.848 24.44 6.752 37.168 5.688l.008.072c.136-.016.584-.064.992-.112.168-.016.336 0 .504-.024 11.656 6.296 24.688 9.608 37.872 9.608 13.176 0 26.216-3.312 37.872-9.6 13.216 1.352 26.496-.584 38.664-5.624 12.168-5.048 22.944-13.088 31.312-23.36 12.696-3.8 24.248-10.672 33.568-19.992s16.192-20.872 19.992-33.568c10.272-8.368 18.312-19.136 23.36-31.312 4.856-11.712 6.744-24.48 5.688-37.168l.072-.008zM275.6 65.472c-.496-1.912-1.136-3.752-1.96-5.504l81.504-40.752c6.008 6.944 17.592 24.224 17.592 54.256 0 30.056-11.6 47.344-17.592 54.256L273.64 86.976c.824-1.752 1.464-3.6 1.96-5.504h17.136v-16H275.6zm-4.216 38.272 38.84 54.376 13.016-9.296-21.28-29.792 55.824 27.912 4.008-3.264c.4-.328 4.08-3.432 8.592-9.488l21.456 12.864-80.528 80.528-55.232-124.288c2.504-.96 4.864-2.176 7.016-3.696l8.288 4.144zm87.352 185.584a54.992 54.992 0 0 0-5.672 10.384c-4.392 10.6-5.376 22.232-2.928 33.368-3.464 2.168-6.512 4.584-9.232 7.304-8 8-13.312 18.32-15.32 29.576a55.825 55.825 0 0 0-11.488 3.344 55.817 55.817 0 0 0-25.6 21.44c-15.2-3.304-31.072 0-43.616 8.728a54.992 54.992 0 0 0-10.384-5.672 55.671 55.671 0 0 0-33.368-2.928c-2.168-3.464-4.584-6.512-7.304-9.232-8.008-8.008-18.328-13.32-29.576-15.328a55.753 55.753 0 0 0-3.344-11.48 55.817 55.817 0 0 0-21.44-25.6 55.717 55.717 0 0 0 1.272-11.76c0-11.432-3.52-22.52-10-31.856a55.447 55.447 0 0 0 5.672-10.384c4.392-10.6 5.376-22.224 2.928-33.368 3.464-2.168 6.512-4.584 9.24-7.304 3.008-3.016 5.608-6.4 7.832-10.104l26.904 26.904 31.12-70.024c10.824-.336 21.288-3.712 30.16-9.872a55.175 55.175 0 0 0 10.376 5.672c6.28 2.6 12.984 3.92 19.984 4.024l31.2 70.192L333 228.504c4.352 6.88 10.112 12.776 17 17.2a56.369 56.369 0 0 0-1.264 11.768 55.782 55.782 0 0 0 10 31.856zM222.048 168.216l22.688-51.04 11 24.752c-9.2 7.64-14.976 15.056-16.96 17.768-4.864 4.192-10.608 7.04-16.728 8.52zm34.04-4.44a91.732 91.732 0 0 1 6.456-6.536l4.904 11.04c-2.184-.472-4.32-1.064-6.352-1.912-1.736-.72-3.384-1.624-5.008-2.592zM244.736 57.472c8.816 0 16 7.184 16 16s-7.184 16-16 16c-8.824 0-16-7.184-16-16s7.176-16 16-16zM134.328 19.216l81.504 40.752c-.824 1.752-1.464 3.6-1.96 5.504h-49.136v16h49.136c.496 1.912 1.136 3.752 1.96 5.504l-81.504 40.752c-6.008-6.944-17.592-24.224-17.592-54.256 0-30.056 11.6-47.344 17.592-54.256zm-15.24 114.976c4.512 6.056 8.192 9.16 8.592 9.488l4.008 3.264 55.824-27.912-21.28 29.792 13.016 9.296 38.84-54.376 8.288-4.144c2.16 1.52 4.52 2.736 7.016 3.696L178.16 227.584l-80.528-80.528 21.456-12.864zM98.2 187.84c1.184-4.368 2.88-8.576 4.992-12.608l41.232 41.24c-1.904 4.048-4.168 7.776-7.168 10.776-2.896 2.896-6.448 5.352-10.848 7.504l-6.4 3.12 2.36 6.72c3.272 9.336 3.008 19.472-.744 28.528-.72 1.728-1.616 3.368-2.584 4.984-9.336-8.36-26.304-27.032-26.304-52.632 0-13.696 4.696-34.336 5.464-37.632zm-23.456 31.216c.784-1.904 1.768-3.712 2.736-5.528-.448 4.12-.744 8.216-.744 11.944 0 40.216 31.824 65.328 38.232 69.968 6.272 7.28 9.768 16.48 9.768 26.032 0 1.776-.208 3.56-.456 5.336-42.968-16.136-52.288-64.904-53.856-75.968-1.264-10.824.184-21.784 4.32-31.784zm68.464 216.976c-10.832-2.928-20.712-8.584-28.584-16.448-7.96-7.96-13.688-17.976-16.576-28.96l-.696-2.672-2.2-1.664c-9.04-6.872-16.104-16-20.408-26.4-4.304-10.4-5.776-21.84-4.224-33.096l.368-2.736-1.392-2.392c-5.728-9.8-8.76-20.936-8.76-32.192 0-3.176.304-6.336.776-9.464 8.552 23.56 26.832 53.984 65.288 64.448 8.744 4.296 15.608 11.56 19.32 20.496 1.688 4.088 2.68 8.464 2.936 13.008l.352 6.312c-4.32-4.192-10.192-6.8-16.672-6.8-13.232 0-24 10.768-24 24s10.768 24 24 24 24-10.768 24-24c0-6.336-2.512-12.064-6.536-16.352l6.368.368c9.912.584 19.128 4.656 25.936 11.464 2.896 2.896 5.352 6.448 7.504 10.848l3.12 6.4 6.72-2.36c9.344-3.272 19.464-3 28.528.744 1.728.72 3.368 1.624 4.984 2.584-8.352 9.336-27.024 26.304-52.624 26.304-13.584 0-33.984-4.616-37.528-5.44zm-2.472-34.56c0 4.416-3.584 8-8 8s-8-3.584-8-8 3.584-8 8-8 8 3.584 8 8zm65.368 62.312c-10.824 1.264-21.784-.184-31.784-4.32-1.904-.784-3.712-1.768-5.528-2.736 4.12.448 8.216.744 11.944.744 40.296 0 65.432-31.968 70-38.28 8.632-7.416 20.024-10.76 31.328-9.232-16.152 42.944-64.896 52.264-75.96 53.824zM391.296 391c-2.928 10.832-8.584 20.712-16.448 28.584-7.96 7.96-17.976 13.688-28.96 16.576l-2.672.696-1.664 2.2c-6.872 9.04-16 16.104-26.4 20.408-10.4 4.304-21.84 5.776-33.096 4.224l-2.736-.368-2.392 1.392c-12.504 7.304-27.272 9.904-41.416 7.888 23.528-8.592 53.768-26.872 64.2-65.2 4.296-8.744 11.56-15.608 20.496-19.32 4.088-1.688 8.464-2.68 13.008-2.936l6.312-.352c-4.184 4.328-6.792 10.2-6.792 16.68 0 13.232 10.768 24 24 24s24-10.768 24-24-10.768-24-24-24c-6.336 0-12.072 2.512-16.36 6.544l.376-6.368c.592-9.928 4.664-19.144 11.464-25.944 2.896-2.896 6.448-5.352 10.848-7.504l6.4-3.12-2.36-6.72c-3.272-9.336-3.008-19.472.744-28.528.712-1.728 1.616-3.368 2.584-4.984 9.336 8.352 26.304 27.024 26.304 52.624 0 13.584-4.616 33.984-5.44 37.528zm-42.56 10.472c0-4.416 3.584-8 8-8s8 3.584 8 8-3.584 8-8 8-8-3.584-8-8zm65.992-41.584c-.792 1.904-1.768 3.712-2.736 5.528.448-4.12.744-8.216.744-11.944 0-40.216-31.832-65.328-38.232-69.968-6.28-7.28-9.768-16.48-9.768-26.032 0-1.776.208-3.56.456-5.336 42.968 16.136 52.288 64.904 53.856 75.968 1.264 10.824-.184 21.784-4.32 31.784zm13.232-60.952c-8.552-23.56-26.832-53.976-65.288-64.448-7.752-3.808-13.888-10.04-17.84-17.8l41.456-41.456c2.184 4.192 3.944 8.552 5.136 13.088l.696 2.672 2.2 1.664c9.04 6.872 16.104 16 20.408 26.4 4.304 10.4 5.776 21.84 4.224 33.096l-.368 2.736 1.392 2.392c5.728 9.8 8.76 20.936 8.76 32.192 0 3.176-.304 6.336-.776 9.464z"/><path d="M308.736 65.472h16v16h-16z"/><path style="fill:maroon;stroke-width:.556218" d="M131.556 123.621c-9.185-12.467-14.482-30.888-14.468-50.317.014-19.07 5.084-36.58 14.417-49.799l2.844-4.028 40.534 20.269 40.534 20.268-.91 2.532-.91 2.532h-49.235v16.686h49.235l.91 2.532.91 2.531-40.547 20.275-40.547 20.275zM314.461 107.07l-40.406-20.243.91-2.531.91-2.532h16.974V65.078h-16.974l-.91-2.532-.91-2.532 40.533-20.268 40.533-20.268 3.033 4.306c13.699 19.444 17.958 49.295 10.833 75.932-2.464 9.21-7.871 20.405-12.338 25.545l-1.782 2.05zm10.649-33.65v-8.342H308.423v16.686H325.11zM284.267 165.924c-14.931-33.592-27.26-61.362-27.396-61.71-.137-.35 1.207-1.43 2.986-2.403l3.234-1.767 3.991 1.96 3.991 1.959 18.752 26.306c10.313 14.469 19.155 26.729 19.648 27.245.836.876 1.29.658 6.737-3.224 3.212-2.29 6.183-4.503 6.601-4.918.643-.637-.767-2.89-9.07-14.497-5.407-7.558-9.72-13.853-9.582-13.99.136-.137 12.282 5.769 26.989 13.124l26.74 13.372 3.346-2.784c1.84-1.53 4.646-4.343 6.236-6.249 1.59-1.906 3.152-3.384 3.472-3.285.553.172 17.364 10.148 19.354 11.485.816.549-4.443 6.02-38.969 40.544l-39.912 39.91zM138.056 187.004l-39.885-39.889 8.483-5.084c4.666-2.796 9.368-5.604 10.45-6.24l1.966-1.155 2.382 3.05c1.31 1.677 4.121 4.547 6.248 6.377l3.865 3.327 26.75-13.377c14.712-7.357 26.875-13.251 27.029-13.098.153.153-4.158 6.45-9.58 13.993-8.31 11.56-9.74 13.832-9.1 14.467.416.414 3.386 2.626 6.598 4.915 5.446 3.882 5.9 4.1 6.737 3.224.493-.516 9.33-12.769 19.636-27.228l18.739-26.288 3.942-1.986 3.942-1.985 2.843 1.515c1.563.833 3.036 1.685 3.272 1.894.32.283-53.494 122.519-54.287 123.312-.08.08-18.093-17.806-40.03-39.744zM239.659 88.32c-.957-.307-2.955-1.478-4.44-2.6-7.35-5.556-8.145-16.57-1.663-23.052 3.45-3.451 6.092-4.523 11.18-4.534 3.897-.008 4.818.195 7.41 1.631 5.238 2.9 8.032 7.617 8.114 13.694.042 3.03-.237 4.216-1.628 6.937-1.862 3.641-5.617 6.913-9.147 7.97-2.513.753-7.418.73-9.826-.045zM129.488 408.22c-7.359-3.643-4.689-14.427 3.57-14.415 3.89.005 7.611 4.234 7.209 8.194-.32 3.145-1.65 5.026-4.454 6.3-2.944 1.336-3.48 1.33-6.325-.08zM353.66 408.299c-5.778-2.623-6.112-10.03-.606-13.387 4.39-2.676 10.274.173 11.337 5.49.543 2.715-1.57 6.435-4.449 7.829-2.883 1.396-3.347 1.4-6.283.067z"/><path style="fill:green;stroke-width:.556218" d="M113.687 272.133c-10.85-11.304-17.819-24.599-19.987-38.131-1.85-11.55 2.048-40.02 7.269-53.09.947-2.372 1.902-4.495 2.12-4.717.22-.223 9.527 8.727 20.685 19.889l20.287 20.293-1.649 3.152c-1.902 3.636-6.656 8.979-10.097 11.346-1.306.899-4.642 2.762-7.412 4.141-2.771 1.38-5.038 2.667-5.038 2.863 0 .195.899 3.132 1.997 6.526 3.469 10.715 3.116 20.534-1.058 29.46l-1.786 3.822zM223.802 165.12c1.415-3.27 20.785-46.896 20.88-47.026.077-.108 9.509 21.128 10.083 22.705.234.644-1.434 2.692-5.683 6.977-3.308 3.337-7.767 7.96-9.908 10.275-3.205 3.464-4.73 4.614-8.622 6.497-2.6 1.259-5.419 2.448-6.264 2.643l-1.536.355zM263.091 166.618c-1.835-.686-4.012-1.57-4.837-1.966l-1.5-.72 1.442-1.89c.793-1.04 2.11-2.366 2.925-2.947l1.482-1.055 2.064 4.771c1.136 2.624 1.996 4.835 1.913 4.913-.083.078-1.653-.42-3.489-1.106zM426.398 294.119c-.734-1.922-2.572-5.978-4.085-9.012-12.457-24.985-30.412-41.173-54.886-49.48-8.44-2.865-14.078-6.912-18.655-13.39-1.308-1.85-2.646-3.883-2.974-4.515-.537-1.038 1.4-3.145 19.913-21.653l20.509-20.503 1.44 3.256c.791 1.79 2.086 5.329 2.876 7.864 1.338 4.291 1.642 4.767 4.424 6.913 6.788 5.237 13.91 14.118 17.947 22.384 4.71 9.641 6.549 19.207 6.024 31.352l-.342 7.924 2.724 5.445c3.017 6.032 4.589 10.49 5.847 16.58 1.066 5.161 1.586 14.222 1.013 17.67l-.441 2.66zM412.7 353.679c-.01-7.094-.278-10.913-1.008-14.386-2.445-11.626-7.602-23.319-14.713-33.358-3.445-4.863-11.058-12.916-21.308-22.542-3.195-3-4.622-4.862-6.218-8.117-2.847-5.804-4.296-11.813-4.296-17.822v-4.903l1.53.58c6.444 2.448 14.406 7.346 20.584 12.664 15.232 13.109 27.513 37.2 31.321 61.438 1.512 9.623-.36 23.865-4.283 32.564l-1.595 3.54zM238.618 471.979c.917-.45 4.354-2.06 7.637-3.578 19.4-8.968 35.335-22.975 44.888-39.46 3.025-5.221 4.726-9.044 7.081-15.91 2.722-7.935 4.319-10.57 9.64-15.912 7.254-7.281 14.757-10.73 25.265-11.614 2.778-.234 5.133-.363 5.232-.287.099.076-.582 1.189-1.512 2.473-8.7 12.009-3.94 29.242 9.884 35.792 3.466 1.642 4.065 1.746 10.08 1.746 6.047 0 6.604-.098 10.165-1.785 4.95-2.344 9.346-6.74 11.69-11.69 1.7-3.59 1.785-4.084 1.785-10.443 0-6.468-.058-6.79-1.873-10.406-2.276-4.535-7.143-9.374-11.378-11.313-8.03-3.676-17.48-2.898-24.235 1.995-2.265 1.641-2.283 1.644-2.283.385 0-3.224 1.26-11.041 2.306-14.312 3.448-10.773 10.31-18.26 22.167-24.187 2.295-1.147 4.254-2.16 4.355-2.25.1-.09-.74-3.001-1.866-6.47-3.558-10.951-3.23-20.652 1-29.594l1.834-3.878 4.073 4.127c10.88 11.027 17.939 23.68 20.768 37.222.929 4.45 1.056 6.647.803 13.906-.307 8.828-2.413 23.26-4.784 32.788-2.845 11.43-8.043 20.68-16.449 29.27-8.152 8.331-16.17 13.238-27.299 16.708-4.513 1.407-4.803 1.6-7.502 4.992-8.078 10.152-20.304 18.053-33.614 21.723-5.169 1.426-6.368 1.54-16.964 1.613l-11.403.079-5.93 2.89c-8.918 4.344-14.847 5.704-26.052 5.976-8.377.203-9.032.151-7.51-.596z"/><path style="fill:green;stroke-width:.556218" d="M188.28 463.098c-5.089-.905-11.043-2.675-14.648-4.355l-2.689-1.254 9.642-.027c10.276-.03 14.8-.69 23.547-3.434 15.452-4.847 32.883-17.076 43.734-30.682 7.006-8.783 17.956-13.714 29.525-13.296l4.43.16-3.114 6.22c-7.783 15.538-19.792 27.05-37.308 35.763-8.853 4.404-17.76 7.591-27.34 9.783-7.933 1.815-19.136 2.303-25.78 1.122zM167.422 440.174c-10.162-1.3-24.997-4.519-30.344-6.584-18.456-7.128-32.13-21.864-38.084-41.045-1.465-4.721-1.622-4.96-5.04-7.68-9.136-7.269-16.65-18.099-20.485-29.523-2.486-7.406-3.276-13.642-2.94-23.217l.3-8.558-2.677-5.347c-5.343-10.67-7.913-22.704-6.98-32.673l.398-4.237 2.37 5.578c11.887 27.973 32.107 47.819 57.062 56.005 7.463 2.449 10.89 4.517 16.178 9.766 4.05 4.021 5.196 5.587 7.336 10.022 2.757 5.714 4.272 11.813 4.272 17.196v3.364l-2.283-1.654c-6.755-4.893-16.205-5.671-24.235-1.995-4.235 1.94-9.102 6.778-11.378 11.313-1.815 3.617-1.873 3.938-1.873 10.406 0 6.36.084 6.853 1.784 10.443 2.345 4.95 6.741 9.346 11.69 11.69 3.562 1.687 4.119 1.785 10.165 1.785 6.016 0 6.615-.104 10.08-1.746 13.795-6.536 18.583-23.784 9.922-35.74l-1.654-2.284h1.548c3.633 0 10.978 1.244 14.618 2.476 10.581 3.58 18.485 11.11 23.977 22.845.927 1.981 1.906 3.603 2.177 3.603.27 0 2.064-.593 3.987-1.316 11.27-4.242 22.07-4.138 31.713.307l3.92 1.807-5.67 5.42c-11.332 10.837-24.552 17.78-37.884 19.898-4.865.772-14.506.63-21.97-.325z"/><path style="fill:green;stroke-width:.556218" d="M117.818 323.482c-15.473-7.75-26.916-19.657-35.761-37.214-4.476-8.883-8.217-19.797-10.335-30.152-1.312-6.412-1.444-8.069-1.192-14.995.313-8.626 1.903-16.126 4.687-22.108l1.541-3.311.014 9.65c.016 10.787.712 15.227 3.88 24.752 3.299 9.915 8.163 18.56 15.648 27.813 4.272 5.281 12.417 13.365 16.221 16.1 6.736 4.841 12.022 17.398 11.677 27.737l-.161 4.843z"/></svg>