<?xml version="1.0" encoding="UTF-8" standalone="no"?>
<svg
   viewBox="0 0 489.472 489.472"
   xml:space="preserve"
   version="1.1"
   id="svg2"
   sodipodi:docname="Christmas.svg"
   inkscape:version="1.4.3 (0d15f75, 2025-12-25)"
   xmlns:inkscape="http://www.inkscape.org/namespaces/inkscape"
   xmlns:sodipodi="http://sodipodi.sourceforge.net/DTD/sodipodi-0.dtd"
   xmlns="http://www.w3.org/2000/svg"
   xmlns:svg="http://www.w3.org/2000/svg"><defs
     id="defs2" /><sodipodi:namedview
     id="namedview2"
     pagecolor="#ffffff"
     bordercolor="#000000"
     borderopacity="0.25"
     inkscape:showpageshadow="2"
     inkscape:pageopacity="0.0"
     inkscape:pagecheckerboard="0"
     inkscape:deskcolor="#d1d1d1"
     inkscape:zoom="1.7978557"
     inkscape:cx="244.73599"
     inkscape:cy="245.0141"
     inkscape:window-width="1024"
     inkscape:window-height="1186"
     inkscape:window-x="2106"
     inkscape:window-y="122"
     inkscape:window-maximized="0"
     inkscape:current-layer="svg2" /><path
     d="M435.264 328.84c-.016-.136-.064-.584-.112-.992-.016-.168 0-.336-.024-.504 6.296-11.656 9.608-24.696 9.608-37.872 0-13.176-3.312-26.216-9.6-37.872 1.352-13.176-.576-26.488-5.624-38.664-5.048-12.168-13.088-22.944-23.36-31.312a78.657 78.657 0 0 0-8.08-18.168l19.56-19.56-39.008-23.408c5.448-11.264 10.112-26.768 10.112-47.016 0-47.696-25.848-69.304-26.944-70.2L357.784.008l-94.68 47.336c-5.208-3.672-11.528-5.872-18.368-5.872-6.848 0-13.16 2.2-18.368 5.872L131.688 0l-4.008 3.264c-1.104.904-26.944 22.512-26.944 70.208 0 20.248 4.664 35.752 10.112 47L71.84 143.88l19.56 19.56a78.96 78.96 0 0 0-8.08 18.168c-10.272 8.368-18.312 19.136-23.36 31.312-4.856 11.712-6.744 24.48-5.688 37.168l-.072.008c.016.136.064.584.112.992.024.176.008.344.024.512-6.288 11.656-9.6 24.696-9.6 37.872 0 13.176 3.312 26.216 9.6 37.872-1.352 13.176.576 26.488 5.624 38.664 5.048 12.168 13.088 22.944 23.36 31.312 3.8 12.696 10.672 24.248 19.992 33.568s20.872 16.192 33.568 19.992c8.368 10.272 19.136 18.312 31.312 23.36 11.704 4.848 24.44 6.752 37.168 5.688l.008.072c.136-.016.584-.064.992-.112.168-.016.336 0 .504-.024 11.656 6.296 24.688 9.608 37.872 9.608 13.176 0 26.216-3.312 37.872-9.6 13.216 1.352 26.496-.584 38.664-5.624 12.168-5.048 22.944-13.088 31.312-23.36 12.696-3.8 24.248-10.672 33.568-19.992s16.192-20.872 19.992-33.568c10.272-8.368 18.312-19.136 23.36-31.312 4.856-11.712 6.744-24.48 5.688-37.168l.072-.008zM275.6 65.472c-.496-1.912-1.136-3.752-1.96-5.504l81.504-40.752c6.008 6.944 17.592 24.224 17.592 54.256 0 30.056-11.6 47.344-17.592 54.256L273.64 86.976c.824-1.752 1.464-3.6 1.96-5.504h17.136v-16H275.6zm-4.216 38.272 38.84 54.376 13.016-9.296-21.28-29.792 55.824 27.912 4.008-3.264c.4-.328 4.08-3.432 8.592-9.488l21.456 12.864-80.528 80.528-55.232-124.288c2.504-.96 4.864-2.176 7.016-3.696l8.288 4.144zm87.352 185.584a54.992 54.992 0 0 0-5.672 10.384c-4.392 10.6-5.376 22.232-2.928 33.368-3.464 2.168-6.512 4.584-9.232 7.304-8 8-13.312 18.32-15.32 29.576a55.825 55.825 0 0 0-11.488 3.344 55.817 55.817 0 0 0-25.6 21.44c-15.2-3.304-31.072 0-43.616 8.728a54.992 54.992 0 0 0-10.384-5.672 55.671 55.671 0 0 0-33.368-2.928c-2.168-3.464-4.584-6.512-7.304-9.232-8.008-8.008-18.328-13.32-29.576-15.328a55.753 55.753 0 0 0-3.344-11.48 55.817 55.817 0 0 0-21.44-25.6 55.717 55.717 0 0 0 1.272-11.76c0-11.432-3.52-22.52-10-31.856a55.447 55.447 0 0 0 5.672-10.384c4.392-10.6 5.376-22.224 2.928-33.368 3.464-2.168 6.512-4.584 9.24-7.304 3.008-3.016 5.608-6.4 7.832-10.104l26.904 26.904 31.12-70.024c10.824-.336 21.288-3.712 30.16-9.872a55.175 55.175 0 0 0 10.376 5.672c6.28 2.6 12.984 3.92 19.984 4.024l31.2 70.192L333 228.504c4.352 6.88 10.112 12.776 17 17.2a56.369 56.369 0 0 0-1.264 11.768 55.782 55.782 0 0 0 10 31.856zM222.048 168.216l22.688-51.04 11 24.752c-9.2 7.64-14.976 15.056-16.96 17.768-4.864 4.192-10.608 7.04-16.728 8.52zm34.04-4.44a91.732 91.732 0 0 1 6.456-6.536l4.904 11.04c-2.184-.472-4.32-1.064-6.352-1.912-1.736-.72-3.384-1.624-5.008-2.592zM244.736 57.472c8.816 0 16 7.184 16 16s-7.184 16-16 16c-8.824 0-16-7.184-16-16s7.176-16 16-16zM134.328 19.216l81.504 40.752c-.824 1.752-1.464 3.6-1.96 5.504h-49.136v16h49.136c.496 1.912 1.136 3.752 1.96 5.504l-81.504 40.752c-6.008-6.944-17.592-24.224-17.592-54.256 0-30.056 11.6-47.344 17.592-54.256zm-15.24 114.976c4.512 6.056 8.192 9.16 8.592 9.488l4.008 3.264 55.824-27.912-21.28 29.792 13.016 9.296 38.84-54.376 8.288-4.144c2.16 1.52 4.52 2.736 7.016 3.696L178.16 227.584l-80.528-80.528 21.456-12.864zM98.2 187.84c1.184-4.368 2.88-8.576 4.992-12.608l41.232 41.24c-1.904 4.048-4.168 7.776-7.168 10.776-2.896 2.896-6.448 5.352-10.848 7.504l-6.4 3.12 2.36 6.72c3.272 9.336 3.008 19.472-.744 28.528-.72 1.728-1.616 3.368-2.584 4.984-9.336-8.36-26.304-27.032-26.304-52.632 0-13.696 4.696-34.336 5.464-37.632zm-23.456 31.216c.784-1.904 1.768-3.712 2.736-5.528-.448 4.12-.744 8.216-.744 11.944 0 40.216 31.824 65.328 38.232 69.968 6.272 7.28 9.768 16.48 9.768 26.032 0 1.776-.208 3.56-.456 5.336-42.968-16.136-52.288-64.904-53.856-75.968-1.264-10.824.184-21.784 4.32-31.784zm68.464 216.976c-10.832-2.928-20.712-8.584-28.584-16.448-7.96-7.96-13.688-17.976-16.576-28.96l-.696-2.672-2.2-1.664c-9.04-6.872-16.104-16-20.408-26.4-4.304-10.4-5.776-21.84-4.224-33.096l.368-2.736-1.392-2.392c-5.728-9.8-8.76-20.936-8.76-32.192 0-3.176.304-6.336.776-9.464 8.552 23.56 26.832 53.984 65.288 64.448 8.744 4.296 15.608 11.56 19.32 20.496 1.688 4.088 2.68 8.464 2.936 13.008l.352 6.312c-4.32-4.192-10.192-6.8-16.672-6.8-13.232 0-24 10.768-24 24s10.768 24 24 24 24-10.768 24-24c0-6.336-2.512-12.064-6.536-16.352l6.368.368c9.912.584 19.128 4.656 25.936 11.464 2.896 2.896 5.352 6.448 7.504 10.848l3.12 6.4 6.72-2.36c9.344-3.272 19.464-3 28.528.744 1.728.72 3.368 1.624 4.984 2.584-8.352 9.336-27.024 26.304-52.624 26.304-13.584 0-33.984-4.616-37.528-5.44zm-2.472-34.56c0 4.416-3.584 8-8 8s-8-3.584-8-8 3.584-8 8-8 8 3.584 8 8zm65.368 62.312c-10.824 1.264-21.784-.184-31.784-4.32-1.904-.784-3.712-1.768-5.528-2.736 4.12.448 8.216.744 11.944.744 40.296 0 65.432-31.968 70-38.28 8.632-7.416 20.024-10.76 31.328-9.232-16.152 42.944-64.896 52.264-75.96 53.824zM391.296 391c-2.928 10.832-8.584 20.712-16.448 28.584-7.96 7.96-17.976 13.688-28.96 16.576l-2.672.696-1.664 2.2c-6.872 9.04-16 16.104-26.4 20.408-10.4 4.304-21.84 5.776-33.096 4.224l-2.736-.368-2.392 1.392c-12.504 7.304-27.272 9.904-41.416 7.888 23.528-8.592 53.768-26.872 64.2-65.2 4.296-8.744 11.56-15.608 20.496-19.32 4.088-1.688 8.464-2.68 13.008-2.936l6.312-.352c-4.184 4.328-6.792 10.2-6.792 16.68 0 13.232 10.768 24 24 24s24-10.768 24-24-10.768-24-24-24c-6.336 0-12.072 2.512-16.36 6.544l.376-6.368c.592-9.928 4.664-19.144 11.464-25.944 2.896-2.896 6.448-5.352 10.848-7.504l6.4-3.12-2.36-6.72c-3.272-9.336-3.008-19.472.744-28.528.712-1.728 1.616-3.368 2.584-4.984 9.336 8.352 26.304 27.024 26.304 52.624 0 13.584-4.616 33.984-5.44 37.528zm-42.56 10.472c0-4.416 3.584-8 8-8s8 3.584 8 8-3.584 8-8 8-8-3.584-8-8zm65.992-41.584c-.792 1.904-1.768 3.712-2.736 5.528.448-4.12.744-8.216.744-11.944 0-40.216-31.832-65.328-38.232-69.968-6.28-7.28-9.768-16.48-9.768-26.032 0-1.776.208-3.56.456-5.336 42.968 16.136 52.288 64.904 53.856 75.968 1.264 10.824-.184 21.784-4.32 31.784zm13.232-60.952c-8.552-23.56-26.832-53.976-65.288-64.448-7.752-3.808-13.888-10.04-17.84-17.8l41.456-41.456c2.184 4.192 3.944 8.552 5.136 13.088l.696 2.672 2.2 1.664c9.04 6.872 16.104 16 20.408 26.4 4.304 10.4 5.776 21.84 4.224 33.096l-.368 2.736 1.392 2.392c5.728 9.8 8.76 20.936 8.76 32.192 0 3.176-.304 6.336-.776 9.464z"
     id="path1" /><path
     d="M308.736 65.472h16v16h-16z"
     id="path2" /><path
     style="fill:#800000;stroke-width:0.556218"
     d="m 131.55598,123.62108 c -9.18515,-12.46675 -14.48161,-30.88767 -14.46749,-50.317414 0.0139,-19.069537 5.08321,-36.580613 14.41642,-49.798644 l 2.844,-4.027776 40.53416,20.26858 40.53416,20.26858 -0.91034,2.53156 -0.91035,2.531559 H 188.9795 164.36247 v 8.343273 8.343272 h 24.61703 24.61704 l 0.91035,2.53156 0.91034,2.531561 -40.54694,20.274979 -40.54695,20.27497 z"
     id="path3" /><path
     style="fill:#800000;stroke-width:0.556218"
     d="m 314.46097,107.0691 -40.40621,-20.24192 0.91034,-2.531555 0.91034,-2.531555 h 8.48671 8.48671 v -8.343272 -8.343273 h -8.48671 -8.48671 l -0.91034,-2.531559 -0.91035,-2.53156 40.53304,-20.268018 40.53303,-20.268018 3.03327,4.305324 c 13.69892,19.443835 17.95753,49.295505 10.83246,75.932323 -2.46349,9.209653 -7.87062,20.405133 -12.33739,25.544663 l -1.78197,2.05035 z m 10.64855,-33.648302 v -8.343273 h -8.34328 -8.34327 v 8.343273 8.343272 h 8.34327 8.34328 z"
     id="path4" /><path
     style="fill:#800000;stroke-width:0.556218"
     d="m 284.26722,165.92412 c -14.93138,-33.59235 -27.25969,-61.3623 -27.39625,-61.711 -0.13655,-0.34869 1.20713,-1.42947 2.98597,-2.40171 l 3.23425,-1.76772 3.99106,1.95945 3.99106,1.95946 18.75153,26.30641 c 10.31333,14.46852 19.15503,26.72887 19.64821,27.24521 0.83619,0.87546 1.29073,0.65793 6.73698,-3.2241 3.21216,-2.28959 6.18273,-4.50265 6.60127,-4.9179 0.64271,-0.63766 -0.76705,-2.89082 -9.0703,-14.49678 -5.40721,-7.55797 -9.71932,-13.85374 -9.58246,-13.99059 0.13685,-0.13686 12.2821,5.76883 26.98944,13.12376 l 26.74063,13.37258 3.34513,-2.78385 c 1.83983,-1.53111 4.64595,-4.34323 6.23584,-6.24914 1.58989,-1.90591 3.15266,-3.38405 3.47284,-3.28475 0.55297,0.17149 17.36332,10.14713 19.35373,11.48494 0.81611,0.54852 -4.44321,6.02036 -38.96876,40.54341 l -39.9122,39.90931 z"
     id="path5" /><path
     style="fill:#800000;stroke-width:0.556218"
     d="m 138.05638,187.00358 -39.885642,-39.88852 8.483212,-5.08404 c 4.66577,-2.79621 9.36803,-5.60401 10.44948,-6.23953 l 1.96627,-1.15551 2.38203,3.04994 c 1.31011,1.67746 4.12163,4.54717 6.24781,6.37711 l 3.86579,3.32719 26.74964,-13.3771 c 14.71231,-7.35741 26.8752,-13.25155 27.02865,-13.0981 0.15345,0.15345 -4.15752,6.45035 -9.57994,13.99311 -8.31054,11.56023 -9.73982,13.8323 -9.10048,14.46661 0.41716,0.41387 3.3866,2.62579 6.59876,4.91538 5.44625,3.88203 5.90079,4.09956 6.73698,3.2241 0.49318,-0.51634 9.32925,-12.76883 19.63573,-27.22775 l 18.73904,-26.28894 3.94217,-1.98524 3.94218,-1.98525 2.84246,1.51458 c 1.56335,0.83302 3.03601,1.68559 3.27258,1.8946 0.31958,0.28235 -53.49401,122.51882 -54.287,123.3118 -0.0793,0.0793 -18.09262,-17.80575 -40.02972,-39.74444 z"
     id="path6" /><path
     style="fill:#800000;stroke-width:0.556218"
     d="m 239.65886,88.320912 c -0.9569,-0.308235 -2.95484,-1.478741 -4.43986,-2.601124 -7.35068,-5.555648 -8.14545,-16.57008 -1.66339,-23.052143 3.45109,-3.451087 6.09283,-4.522212 11.18038,-4.533219 3.89696,-0.0084 4.81759,0.194139 7.4108,1.630637 5.23676,2.900881 8.03074,7.616663 8.11353,13.69431 0.0413,3.028831 -0.2374,4.215658 -1.62875,6.936856 -1.86158,3.640858 -5.61614,6.912664 -9.14638,7.970349 -2.51294,0.752897 -7.418,0.730101 -9.82633,-0.04567 z"
     id="path7" /><path
     style="fill:#800000;stroke-width:0.556218"
     d="m 129.48802,408.21954 c -7.35889,-3.64261 -4.68878,-14.4261 3.56931,-14.415 3.89029,0.005 7.61163,4.23488 7.20936,8.19411 -0.31955,3.14512 -1.64982,5.02679 -4.45376,6.29987 -2.94344,1.33642 -3.479,1.32973 -6.32491,-0.079 z"
     id="path8" /><path
     style="fill:#800000;stroke-width:0.556218"
     d="m 353.65906,408.29852 c -5.77694,-2.62291 -6.11147,-10.02909 -0.60466,-13.38663 4.38946,-2.67629 10.27344,0.17274 11.33675,5.48928 0.54322,2.7161 -1.57061,6.43616 -4.44893,7.82953 -2.88359,1.39592 -3.34703,1.40092 -6.28316,0.0678 z"
     id="path9" /><path
     style="fill:#008000;stroke-width:0.556218"
     d="m 113.68704,272.13318 c -10.8502,-11.30436 -17.818693,-24.59904 -19.986862,-38.13148 -1.850346,-11.54877 2.047671,-40.01982 7.268472,-53.08884 0.94776,-2.37247 1.90216,-4.4957 2.1209,-4.71828 0.21873,-0.22257 9.52668,8.72749 20.68432,19.88905 l 20.28663,20.29372 -1.64833,3.15151 c -1.90202,3.63651 -6.65638,8.97902 -10.0974,11.3465 -1.30589,0.89849 -4.64132,2.76183 -7.41205,4.14077 -2.77074,1.37894 -5.03771,2.66702 -5.03771,2.86238 0,0.19537 0.89886,3.13229 1.99745,6.52649 3.46821,10.71529 3.11559,20.53423 -1.05797,29.46044 l -1.7868,3.82153 z"
     id="path10" /><path
     style="fill:#008000;stroke-width:0.556218"
     d="m 223.80151,165.11975 c 1.41523,-3.27051 20.78507,-46.89624 20.87955,-47.02598 0.0784,-0.10763 9.50992,21.12846 10.08422,22.70566 0.23421,0.64322 -1.43436,2.69167 -5.68319,6.97705 -3.30812,3.33657 -7.76684,7.96026 -9.90828,10.27488 -3.20465,3.46381 -4.73001,4.61328 -8.62138,6.49684 -2.60032,1.25864 -5.41924,2.44797 -6.26427,2.64296 l -1.53641,0.35452 z"
     id="path11" /><path
     style="fill:#008000;stroke-width:0.556218"
     d="m 263.09119,166.61818 c -1.83552,-0.68603 -4.01234,-1.57091 -4.83738,-1.9664 l -1.50007,-0.71908 1.44228,-1.89092 c 0.79326,-1.04001 2.10929,-2.36588 2.92452,-2.94637 l 1.48223,-1.05545 2.06437,4.77111 c 1.1354,2.6241 1.99619,4.83485 1.91287,4.91276 -0.0833,0.0779 -1.6533,-0.41963 -3.48882,-1.10565 z"
     id="path12" /><path
     style="fill:#008000;stroke-width:0.556218"
     d="m 426.39752,294.11879 c -0.73383,-1.92214 -2.57199,-5.97749 -4.0848,-9.01189 -12.4565,-24.98529 -30.41208,-41.17243 -54.88574,-49.48006 -8.44005,-2.86498 -14.07791,-6.91144 -18.65515,-13.38933 -1.30798,-1.85111 -2.64609,-3.88316 -2.97356,-4.51566 -0.53747,-1.0381 1.4,-3.14485 19.91301,-21.65278 l 20.50841,-20.50279 1.43969,3.25541 c 0.79183,1.79047 2.08628,5.32923 2.87655,7.86391 1.3381,4.29173 1.64222,4.76693 4.42442,6.91339 6.78812,5.23699 13.90877,14.11799 17.94711,22.38393 4.71021,9.64118 6.54814,19.20755 6.0236,31.35256 l -0.34221,7.92303 2.72401,5.44594 c 3.01684,6.03138 4.58893,10.48913 5.84683,16.57903 1.06613,5.16148 1.58603,14.22291 1.01378,17.66964 l -0.4417,2.66047 z"
     id="path13" /><path
     style="fill:#008000;stroke-width:0.556218"
     d="m 412.69977,353.67895 c -0.0104,-7.09423 -0.27797,-10.91305 -1.00808,-14.38587 -2.44423,-11.62615 -7.60147,-23.31893 -14.71297,-33.35807 -3.44478,-4.86291 -11.05752,-12.91649 -21.30796,-22.54186 -3.19508,-3.00024 -4.62163,-4.86243 -6.21789,-8.11668 -2.8473,-5.80476 -4.29564,-11.81393 -4.29564,-17.82267 v -4.90322 l 1.5296,0.581 c 6.4446,2.44789 14.40632,7.34577 20.58436,12.66305 15.23137,13.10924 27.51289,37.20035 31.32076,61.43798 1.51194,9.62375 -0.36089,23.86502 -4.2825,32.56474 l -1.59557,3.53962 z"
     id="path14" /><path
     style="fill:#008000;stroke-width:0.556218"
     d="m 238.61759,471.97891 c 0.91776,-0.45048 4.35472,-2.06062 7.63769,-3.57812 19.40051,-8.9675 35.33458,-22.97511 44.88732,-39.46036 3.02518,-5.22059 4.72675,-9.04309 7.08188,-15.90918 2.72197,-7.93554 4.31806,-10.57013 9.63973,-15.91189 7.25424,-7.28165 14.75629,-10.73034 25.26478,-11.61421 2.77841,-0.2337 5.13266,-0.36292 5.23167,-0.28717 0.099,0.0758 -0.58117,1.18854 -1.51152,2.47284 -8.69926,12.00899 -3.94019,29.24231 9.88426,35.79244 3.46512,1.6418 4.06415,1.74553 10.08055,1.74553 6.04601,0 6.60297,-0.0978 10.16424,-1.78469 4.94967,-2.34455 9.3458,-6.74068 11.69035,-11.69035 1.7003,-3.58958 1.78468,-4.08331 1.78468,-10.44234 0,-6.46846 -0.0578,-6.7899 -1.87308,-10.40678 -2.27568,-4.53436 -7.14308,-9.37353 -11.37859,-11.31261 -8.02979,-3.67617 -17.47942,-2.89818 -24.23455,1.99521 -2.26527,1.64096 -2.28337,1.644 -2.28337,0.38449 0,-3.22385 1.25998,-11.04082 2.3068,-14.31151 3.44801,-10.77291 10.31022,-18.26063 22.1668,-24.18739 2.2944,-1.1469 4.25387,-2.15903 4.35439,-2.24918 0.10051,-0.0901 -0.7391,-3.00181 -1.86581,-6.47036 -3.55742,-10.95145 -3.2295,-20.65203 1.00043,-29.59467 l 1.83409,-3.87752 4.0723,4.12716 c 10.87991,11.02648 17.93927,23.67886 20.76799,37.22214 0.92926,4.44908 1.05625,6.64643 0.80361,13.90545 -0.30724,8.82799 -2.41335,23.26098 -4.78459,32.7884 -2.84469,11.4297 -8.04241,20.67888 -16.4486,29.26973 -8.1521,8.3312 -16.16939,13.23811 -27.29904,16.70816 -4.51339,1.4072 -4.80338,1.60016 -7.50233,4.99196 -8.07806,10.15185 -20.30405,18.05311 -33.61346,21.7233 -5.169,1.4254 -6.3682,1.5394 -16.96466,1.61275 l -11.40247,0.0789 -5.93084,2.88927 c -8.91755,4.34428 -14.84646,5.70446 -26.0517,5.97666 -8.37626,0.20349 -9.0319,0.15144 -7.50895,-0.59608 z"
     id="path15" /><path
     style="fill:#008000;stroke-width:0.556218"
     d="m 188.27985,463.09795 c -5.08859,-0.90449 -11.04317,-2.67494 -14.64761,-4.35511 l -2.68891,-1.2534 9.64164,-0.0277 c 10.27583,-0.0296 14.80046,-0.68929 23.5471,-3.43335 15.45167,-4.84762 32.8826,-17.07637 43.73428,-30.68197 7.00585,-8.78379 17.95553,-13.71488 29.5242,-13.29596 l 4.43134,0.16047 -3.1149,6.21873 c -7.78276,15.53787 -19.79168,27.04961 -37.30831,35.7637 -8.85219,4.40375 -17.75956,7.59107 -27.33908,9.78273 -7.93349,1.81507 -19.13705,2.30263 -25.77975,1.12189 z"
     id="path16" /><path
     style="fill:#008000;stroke-width:0.556218"
     d="m 167.42167,440.17372 c -10.16127,-1.29974 -24.9969,-4.51858 -30.34401,-6.58364 -18.45581,-7.12763 -32.12932,-21.8644 -38.083438,-41.04479 -1.465603,-4.72125 -1.622173,-4.95979 -5.040772,-7.68005 -9.135193,-7.2691 -16.649285,-18.0989 -20.48437,-29.52342 -2.486075,-7.40588 -3.275783,-13.64164 -2.940172,-23.21641 l 0.299978,-8.55823 -2.677325,-5.34723 c -5.342605,-10.67041 -7.912952,-22.70416 -6.978792,-32.67303 l 0.397064,-4.23726 2.370492,5.57846 c 11.886849,27.97326 32.106601,47.8186 57.061795,56.00518 7.46325,2.44832 10.89001,4.51696 16.17784,9.76611 4.05021,4.02058 5.19625,5.58614 7.33639,10.02192 2.75679,5.71388 4.27201,11.81295 4.27201,17.19571 v 3.36425 l -2.28338,-1.65406 c -6.75513,-4.89339 -16.20475,-5.67138 -24.23455,-1.99521 -4.23551,1.93908 -9.10291,6.77825 -11.37859,11.31261 -1.81523,3.61688 -1.87308,3.93832 -1.87308,10.40678 0,6.35903 0.0844,6.85276 1.78469,10.44234 2.34455,4.94967 6.74068,9.3458 11.69035,11.69035 3.56127,1.68689 4.11823,1.78469 10.16423,1.78469 6.0164,0 6.61543,-0.10373 10.08056,-1.74553 13.7945,-6.53594 18.58275,-23.7845 9.92173,-35.7407 l -1.65406,-2.28337 h 1.54767 c 3.63303,0 10.97759,1.24372 14.61825,2.47544 10.58128,3.5799 18.48526,11.11099 23.97636,22.8452 0.92725,1.98149 1.9069,3.6027 2.177,3.6027 0.2701,0 2.06436,-0.59218 3.98725,-1.31594 11.27002,-4.24203 22.06958,-4.13728 31.71286,0.3076 l 3.91943,1.80658 -5.66864,5.42076 c -11.33216,10.83663 -24.55278,17.78018 -37.88415,19.897 -4.86504,0.77249 -14.50635,0.62995 -21.97062,-0.32481 z"
     id="path17" /><path
     style="fill:#008000;stroke-width:0.556218"
     d="M 117.81791,323.48242 C 102.3449,315.73249 90.902289,303.82499 82.056653,286.2683 c -4.475684,-8.88327 -8.216514,-19.79706 -10.335019,-30.15218 -1.311771,-6.41186 -1.443478,-8.06906 -1.191782,-14.99555 0.313443,-8.62571 1.903637,-16.12582 4.687242,-22.10726 l 1.541013,-3.31134 0.01411,9.6501 c 0.01577,10.78717 0.71183,15.22725 3.880303,24.75216 3.298225,9.91497 8.162018,18.56036 15.647263,27.81302 4.272417,5.28122 12.417627,13.3652 16.221207,16.09926 6.73602,4.84195 12.02247,17.39884 11.67735,27.7372 l -0.16169,4.84347 z"
     id="path18" /></svg>
