<svg xmlns="http://www.w3.org/2000/svg" viewBox="0 0 489.472 489.472" xml:space="preserve"><path d="M435.264 328.84c-.016-.136-.064-.584-.112-.992-.016-.168 0-.336-.024-.504 6.296-11.656 9.608-24.696 9.608-37.872 0-13.176-3.312-26.216-9.6-37.872 1.352-13.176-.576-26.488-5.624-38.664-5.048-12.168-13.088-22.944-23.36-31.312a78.657 78.657 0 0 0-8.08-18.168l19.56-19.56-39.008-23.408c5.448-11.264 10.112-26.768 10.112-47.016 0-47.696-25.848-69.304-26.944-70.2L357.784.008l-94.68 47.336c-5.208-3.672-11.528-5.872-18.368-5.872-6.848 0-13.16 2.2-18.368 5.872L131.688 0l-4.008 3.264c-1.104.904-26.944 22.512-26.944 70.208 0 20.248 4.664 35.752 10.112 47L71.84 143.88l19.56 19.56a78.96 78.96 0 0 0-8.08 18.168c-10.272 8.368-18.312 19.136-23.36 31.312-4.856 11.712-6.744 24.48-5.688 37.168l-.072.008c.016.136.064.584.112.992.024.176.008.344.024.512-6.288 11.656-9.6 24.696-9.6 37.872 0 13.176 3.312 26.216 9.6 37.872-1.352 13.176.576 26.488 5.624 38.664 5.048 12.168 13.088 22.944 23.36 31.312 3.8 12.696 10.672 24.248 19.992 33.568s20.872 16.192 33.568 19.992c8.368 10.272 19.136 18.312 31.312 23.36 11.704 4.848 24.44 6.752 37.168 5.688l.008.072c.136-.016.584-.064.992-.112.168-.016.336 0 .504-.024 11.656 6.296 24.688 9.608 37.872 9.608 13.176 0 26.216-3.312 37.872-9.6 13.216 1.352 26.496-.584 38.664-5.624 12.168-5.048 22.944-13.088 31.312-23.36 12.696-3.8 24.248-10.672 33.568-19.992s16.192-20.872 19.992-33.568c10.272-8.368 18.312-19.136 23.36-31.312 4.856-11.712 6.744-24.48 5.688-37.168l.072-.008zM275.6 65.472c-.496-1.912-1.136-3.752-1.96-5.504l81.504-40.752c6.008 6.944 17.592 24.224 17.592 54.256 0 30.056-11.6 47.344-17.592 54.256L273.64 86.976c.824-1.752 1.464-3.6 1.96-5.504h17.136v-16H275.6zm-4.216 38.272 38.84 54.376 13.016-9.296-21.28-29.792 55.824 27.912 4.008-3.264c.4-.328 4.08-3.432 8.592-9.488l21.456 12.864-80.528 80.528-55.232-124.288c2.504-.96 4.864-2.176 7.016-3.696l8.288 4.144zm87.352 185.584a54.992 54.992 0 0 0-5.672 10.384c-4.392 10.6-5.376 22.232-2.928 33.368-3.464 2.168-6.512 4.584-9.232 7.304-8 8-13.312 18.32-15.32 29.576a55.825 55.825 0 0 0-11.488 3.344 55.817 55.817 0 0 0-25.6 21.44c-15.2-3.304-31.072 0-43.616 8.728a54.992 54.992 0 0 0-10.384-5.672 55.671 55.671 0 0 0-33.368-2.928c-2.168-3.464-4.584-6.512-7.304-9.232-8.008-8.008-18.328-13.32-29.576-15.328a55.753 55.753 0 0 0-3.344-11.48 55.817 55.817 0 0 0-21.44-25.6 55.717 55.717 0 0 0 1.272-11.76c0-11.432-3.52-22.52-10-31.856a55.447 55.447 0 0 0 5.672-10.384c4.392-10.6 5.376-22.224 2.928-33.368 3.464-2.168 6.512-4.584 9.24-7.304 3.008-3.016 5.608-6.4 7.832-10.104l26.904 26.904 31.12-70.024c10.824-.336 21.288-3.712 30.16-9.872a55.175 55.175 0 0 0 10.376 5.672c6.28 2.6 12.984 3.92 19.984 4.024l31.2 70.192L333 228.504c4.352 6.88 10.112 12.776 17 17.2a56.369 56.369 0 0 0-1.264 11.768 55.782 55.782 0 0 0 10 31.856zM222.048 168.216l22.688-51.04 11 24.752c-9.2 7.64-14.976 15.056-16.96 17.768-4.864 4.192-10.608 7.04-16.728 8.52zm34.04-4.44a91.732 91.732 0 0 1 6.456-6.536l4.904 11.04c-2.184-.472-4.32-1.064-6.352-1.912-1.736-.72-3.384-1.624-5.008-2.592zM244.736 57.472c8.816 0 16 7.184 16 16s-7.184 16-16 16c-8.824 0-16-7.184-16-16s7.176-16 16-16zM134.328 19.216l81.504 40.752c-.824 1.752-1.464 3.6-1.96 5.504h-49.136v16h49.136c.496 1.912 1.136 3.752 1.96 5.504l-81.504 40.752c-6.008-6.944-17.592-24.224-17.592-54.256 0-30.056 11.6-47.344 17.592-54.256zm-15.24 114.976c4.512 6.056 8.192 9.16 8.592 9.488l4.008 3.264 55.824-27.912-21.28 29.792 13.016 9.296 38.84-54.376 8.288-4.144c2.16 1.52 4.52 2.736 7.016 3.696L178.16 227.584l-80.528-80.528 21.456-12.864zM98.2 187.84c1.184-4.368 2.88-8.576 4.992-12.608l41.232 41.24c-1.904 4.048-4.168 7.776-7.168 10.776-2.896 2.896-6.448 5.352-10.848 7.504l-6.4 3.12 2.36 6.72c3.272 9.336 3.008 19.472-.744 28.528-.72 1.728-1.616 3.368-2.584 4.984-9.336-8.36-26.304-27.032-26.304-52.632 0-13.696 4.696-34.336 5.464-37.632zm-23.456 31.216c.784-1.904 1.768-3.712 2.736-5.528-.448 4.12-.744 8.216-.744 11.944 0 40.216 31.824 65.328 38.232 69.968 6.272 7.28 9.768 16.48 9.768 26.032 0 1.776-.208 3.56-.456 5.336-42.968-16.136-52.288-64.904-53.856-75.968-1.264-10.824.184-21.784 4.32-31.784zm68.464 216.976c-10.832-2.928-20.712-8.584-28.584-16.448-7.96-7.96-13.688-17.976-16.576-28.96l-.696-2.672-2.2-1.664c-9.04-6.872-16.104-16-20.408-26.4-4.304-10.4-5.776-21.84-4.224-33.096l.368-2.736-1.392-2.392c-5.728-9.8-8.76-20.936-8.76-32.192 0-3.176.304-6.336.776-9.464 8.552 23.56 26.832 53.984 65.288 64.448 8.744 4.296 15.608 11.56 19.32 20.496 1.688 4.088 2.68 8.464 2.936 13.008l.352 6.312c-4.32-4.192-10.192-6.8-16.672-6.8-13.232 0-24 10.768-24 24s10.768 24 24 24 24-10.768 24-24c0-6.336-2.512-12.064-6.536-16.352l6.368.368c9.912.584 19.128 4.656 25.936 11.464 2.896 2.896 5.352 6.448 7.504 10.848l3.12 6.4 6.72-2.36c9.344-3.272 19.464-3 28.528.744 1.728.72 3.368 1.624 4.984 2.584-8.352 9.336-27.024 26.304-52.624 26.304-13.584 0-33.984-4.616-37.528-5.44zm-2.472-34.56c0 4.416-3.584 8-8 8s-8-3.584-8-8 3.584-8 8-8 8 3.584 8 8zm65.368 62.312c-10.824 1.264-21.784-.184-31.784-4.32-1.904-.784-3.712-1.768-5.528-2.736 4.12.448 8.216.744 11.944.744 40.296 0 65.432-31.968 70-38.28 8.632-7.416 20.024-10.76 31.328-9.232-16.152 42.944-64.896 52.264-75.96 53.824zM391.296 391c-2.928 10.832-8.584 20.712-16.448 28.584-7.96 7.96-17.976 13.688-28.96 16.576l-2.672.696-1.664 2.2c-6.872 9.04-16 16.104-26.4 20.408-10.4 4.304-21.84 5.776-33.096 4.224l-2.736-.368-2.392 1.392c-12.504 7.304-27.272 9.904-41.416 7.888 23.528-8.592 53.768-26.872 64.2-65.2 4.296-8.744 11.56-15.608 20.496-19.32 4.088-1.688 8.464-2.68 13.008-2.936l6.312-.352c-4.184 4.328-6.792 10.2-6.792 16.68 0 13.232 10.768 24 24 24s24-10.768 24-24-10.768-24-24-24c-6.336 0-12.072 2.512-16.36 6.544l.376-6.368c.592-9.928 4.664-19.144 11.464-25.944 2.896-2.896 6.448-5.352 10.848-7.504l6.4-3.12-2.36-6.72c-3.272-9.336-3.008-19.472.744-28.528.712-1.728 1.616-3.368 2.584-4.984 9.336 8.352 26.304 27.024 26.304 52.624 0 13.584-4.616 33.984-5.44 37.528zm-42.56 10.472c0-4.416 3.584-8 8-8s8 3.584 8 8-3.584 8-8 8-8-3.584-8-8zm65.992-41.584c-.792 1.904-1.768 3.712-2.736 5.528.448-4.12.744-8.216.744-11.944 0-40.216-31.832-65.328-38.232-69.968-6.28-7.28-9.768-16.48-9.768-26.032 0-1.776.208-3.56.456-5.336 42.968 16.136 52.288 64.904 53.856 75.968 1.264 10.824-.184 21.784-4.32 31.784zm13.232-60.952c-8.552-23.56-26.832-53.976-65.288-64.448-7.752-3.808-13.888-10.04-17.84-17.8l41.456-41.456c2.184 4.192 3.944 8.552 5.136 13.088l.696 2.672 2.2 1.664c9.04 6.872 16.104 16 20.408 26.4 4.304 10.4 5.776 21.84 4.224 33.096l-.368 2.736 1.392 2.392c5.728 9.8 8.76 20.936 8.76 32.192 0 3.176-.304 6.336-.776 9.464z"/><path d="M308.736 65.472h16v16h-16z"/></svg>