<?xml version="1.0" encoding="UTF-8" standalone="no"?>
<svg
   width="800"
   height="800"
   viewBox="0 0 100 100"
   version="1.0"
   xml:space="preserve"
   id="svg1"
   sodipodi:docname="Halloween.svg"
   inkscape:version="1.4.3 (0d15f75, 2025-12-25)"
   xmlns:inkscape="http://www.inkscape.org/namespaces/inkscape"
   xmlns:sodipodi="http://sodipodi.sourceforge.net/DTD/sodipodi-0.dtd"
   xmlns="http://www.w3.org/2000/svg"
   xmlns:svg="http://www.w3.org/2000/svg"><defs
     id="defs1" /><sodipodi:namedview
     id="namedview1"
     pagecolor="#ffffff"
     bordercolor="#000000"
     borderopacity="0.25"
     inkscape:showpageshadow="2"
     inkscape:pageopacity="0.0"
     inkscape:pagecheckerboard="0"
     inkscape:deskcolor="#d1d1d1"
     inkscape:zoom="1.1"
     inkscape:cx="400.45455"
     inkscape:cy="400.45455"
     inkscape:window-width="1024"
     inkscape:window-height="1186"
     inkscape:window-x="2347"
     inkscape:window-y="79"
     inkscape:window-maximized="0"
     inkscape:current-layer="svg1" /><path
     d="M49.7 88.1c-4.4 0-8.6-2.2-12-6.1-1.8.9-3.7 1.4-5.6 1.4-10.1 0-18-12.2-18-27.9 0-15.6 7.9-27.9 18-27.9 2.5 0 5 .8 7.3 2.4 2.3-2.1 4.8-3.5 7.5-4.1.9-.2 1.9-.3 2.9-.3 2.6 0 5.1.7 7.4 2.2 1.1.7 2.1 1.5 3.1 2.4 2.4-1.7 5-2.6 7.6-2.6 10.1 0 18 12.2 18 27.9 0 15.6-7.9 27.9-18 27.9-2.1 0-4.1-.5-6-1.6-3.5 4.1-7.7 6.3-12.2 6.3zM38.2 77.4c.6 0 1.2.3 1.6.8 2.8 3.8 6.4 5.9 9.9 5.9 3.6 0 7.2-2.2 10.1-6.1.6-.9 1.9-1.1 2.8-.5 1.7 1.2 3.5 1.8 5.3 1.8 7.6 0 14-10.9 14-23.9 0-12.9-6.4-23.9-14-23.9-2.2 0-4.4.9-6.4 2.8-.4.4-.9.5-1.5.5-.5 0-1-.3-1.4-.7-1.1-1.3-2.3-2.3-3.5-3-2.3-1.4-4.9-1.9-7.3-1.4-2.4.5-4.7 1.9-6.7 4.2-.7.8-2 .9-2.8.2-2-1.7-4-2.5-6.2-2.5-7.6 0-14 10.9-14 23.9 0 12.9 6.4 23.9 14 23.9 1.7 0 3.4-.5 5-1.6.3-.3.7-.4 1.1-.4zm4.4-25.2H30.2c-.7 0-1.4-.4-1.7-1-.4-.6-.4-1.4 0-2l6.2-10.7c.4-.6 1-1 1.7-1s1.4.4 1.7 1l6.2 10.7c.4.6.4 1.4 0 2-.3.6-1 1-1.7 1zm-8.9-4h5.4l-2.7-4.7-2.7 4.7zm36.3 4H57.6c-.7 0-1.4-.4-1.7-1-.4-.6-.4-1.4 0-2l6.2-10.7c.4-.6 1-1 1.7-1s1.4.4 1.7 1l6.2 10.7c.4.6.4 1.4 0 2-.4.6-1 1-1.7 1zm-8.9-4h5.4l-2.7-4.7-2.7 4.7zm-8 26.5c-.5 0-1-.2-1.3-.5-.4-.4-.7-.9-.7-1.5v-3.1h-2.2v3.1c0 .6-.2 1.1-.7 1.5-.4.4-1 .6-1.5.5-9.3-.8-15.8-5.1-15.8-10.3 0-3.8 3.2-7 8.8-8.9.6-.2 1.3-.1 1.8.3s.8 1 .8 1.6v2.4h2.2V56c0-1 .8-1.9 1.8-2 2.4-.2 4.9-.2 7.2 0 1 .1 1.8 1 1.8 2v3.7h2.2v-2.4c0-.6.3-1.3.8-1.6.5-.4 1.2-.5 1.8-.3 5.6 1.9 8.8 5.1 8.8 8.9 0 5.2-6.5 9.5-15.8 10.3.1.1.1.1 0 .1zm-6.2-9.1h6.2c1.1 0 2 .9 2 2v2.8c6.2-1 10-3.8 10-6.1 0-1.4-1.3-2.8-3.5-4v1.4c0 1.1-.9 2-2 2h-6.2c-1.1 0-2-.9-2-2v-3.8h-2.8v3.8c0 1.1-.9 2-2 2h-6.2c-1.1 0-2-.9-2-2v-1.4c-2.2 1.2-3.5 2.6-3.5 4 0 2.3 3.8 5 10 6.1v-2.8c0-1.1.9-2 2-2zm9.2-34.1c-.4 0-.7-.1-1-.3-2.3-1.4-4.8-1.9-7.3-1.4-.8.2-1.6-.1-2-.7-.5-.6-.5-1.5-.2-2.2l4.7-8.7c2.1-3.9 6.1-6.3 10.5-6.3 2.3 0 4.2 1.9 4.2 4.2 0 .7-.2 1.4-.5 2l-6.6 12.3c-.3.5-.7.8-1.2 1-.2 0-.4.1-.6.1zm-5.3-5.9c1.5.1 3.1.5 4.5 1.1l5.6-10.5v-.1s0-.2-.2-.2c-2.9 0-5.6 1.6-7 4.2l-2.9 5.5z"
     id="path1" /><path
     style="fill:#ff6600;stroke-width:0.909091"
     d="m 389.2533,671.76755 c -21.25498,-2.47049 -45.02533,-16.4057 -61.98057,-36.33572 -3.5,-4.11408 -7.49113,-8.81475 -8.86918,-10.44593 -3.31803,-3.92757 -7.6934,-5.89499 -13.1099,-5.89499 -3.66788,0 -5.55685,0.70027 -10.9611,4.06344 -13.6196,8.47572 -22.2598,10.95305 -37.96891,10.88648 -10.45857,-0.0443 -12.65487,-0.33846 -19.09091,-2.55679 C 190.842,615.48058 155.96051,555.02713 146.71957,474.54545 145.04421,459.95434 145.27759,425.67242 147.15898,410 c 5.22081,-43.49066 17.37961,-79.41182 36.78764,-108.68293 16.1188,-24.31031 36.35835,-40.59288 57.02925,-45.8796 8.76861,-2.24264 22.78669,-2.40265 31.23878,-0.35659 8.47162,2.0508 21.27944,8.44422 29.19343,14.57282 13.83738,10.71567 19.09227,10.33678 31.67707,-2.28402 10.03828,-10.06701 18.06906,-16.14893 28.09527,-21.27731 9.96101,-5.09502 14.75135,-6.56528 25.92862,-7.95805 18.77231,-2.33917 32.68132,0.73466 53.29664,11.77834 8.02575,4.29941 11.21127,6.74154 20.56757,15.76781 6.08904,5.87426 12.54108,11.29472 14.33785,12.04546 6.82792,2.85288 11.90947,1.26577 21.52221,-6.72202 8.41446,-6.99207 18.20364,-12.53948 27.71214,-15.70413 5.44016,-1.81061 8.14464,-2.11232 18.63637,-2.0791 10.82836,0.0343 13.12864,0.3253 19.54545,2.47268 14.40389,4.82025 28.98612,15.00447 40.66092,28.39755 26.58086,30.49302 43.67356,74.561 49.89433,128.63636 1.65584,14.39387 1.4203,48.81334 -0.44171,64.54546 -8.57437,72.44466 -39.85105,130.1982 -81.02263,149.61127 -22.03529,10.39001 -44.09788,8.88354 -66.25868,-4.52424 -7.63727,-4.62071 -8.88986,-5.08703 -13.66455,-5.08703 -7.37538,0 -10.3565,1.77016 -16.83712,9.99772 -3.11471,3.95434 -9.82471,11.19753 -14.91109,16.096 -17.81369,17.1555 -35.40381,26.15365 -55.5094,28.39556 -4.76113,0.53089 -8.77499,0.9115 -8.91969,0.84578 -0.1447,-0.0657 -3.05367,-0.44382 -6.46435,-0.84024 z m -4.71933,-76.69716 c 6.34976,-4.84319 6.82245,-6.43759 6.82627,-23.02494 l 0.003,-14.77272 H 400 h 8.63636 v 14.12712 c 0,12.06898 0.25079,14.61851 1.72145,17.5 3.65904,7.16925 9.45627,9.92061 17.73697,8.41795 3.04787,-0.55308 10.66754,-1.79615 16.93259,-2.76236 55.61527,-8.57719 96.60978,-35.0211 104.95298,-67.70099 1.76666,-6.9199 1.77204,-18.573 0.0118,-25.52709 -5.96129,-23.55086 -29.7923,-44.55283 -64.81905,-57.12421 -7.81467,-2.80474 -11.14063,-2.94439 -16.08218,-0.67521 -7.65387,3.51467 -9.54546,8.03414 -9.54546,22.8065 v 10.93829 h -8.09666 -8.09666 L 443.0397,460.07659 442.72727,442.88046 440,439.02119 c -4.45694,-6.30685 -7.21869,-7.21502 -24.98165,-8.21488 -10.05939,-0.56623 -21.08028,-0.55737 -31.35145,0.0252 -18.5128,1.05004 -21.66325,2.11047 -25.44586,8.565 -2.25885,3.85443 -2.31195,4.34512 -2.31195,21.36517 v 17.42013 h -8.56765 -8.56765 L 338.4778,465.5356 c -0.29403,-12.56269 -0.31442,-12.66926 -3.08789,-16.13636 -3.41756,-4.27228 -7.89926,-6.66869 -12.47506,-6.67057 -1.89684,-7.7e-4 -7.41957,1.48151 -12.27273,3.29397 -40.10746,14.97845 -63.74814,40.43259 -63.8105,68.70533 -0.0194,8.8003 1.4266,14.61931 6.00308,24.15744 8.83211,18.40754 30.56247,35.14448 59.81841,46.07273 15.38705,5.74766 30.30607,9.15002 55.52871,12.66362 6.99356,0.97423 12.94786,0.0452 16.35215,-2.55138 z M 347.37826,416.44262 c 5.75384,-2.61292 8.84379,-7.31017 9.24354,-14.05175 l 0.33045,-5.57269 -26.07303,-45 c -14.34017,-24.75 -26.94987,-45.95932 -28.02158,-47.13183 -3.00879,-3.2918 -6.42915,-4.68635 -11.494,-4.68635 -5.23589,0 -8.45787,1.38942 -11.93351,5.14611 -1.31344,1.41964 -13.93267,22.52998 -28.04274,46.91187 -17.98747,31.08196 -25.7991,45.40749 -26.13793,47.93367 -0.91341,6.80999 4.69286,15.2614 11.49015,17.32133 1.29322,0.39191 25.87403,0.73874 54.62403,0.77074 49.18372,0.0547 52.49385,-0.0423 56.01462,-1.6411 z m 218.32035,0.33217 c 7.85211,-3.28082 12.17867,-11.1692 10.20008,-18.59723 -0.6433,-2.4151 -45.70568,-81.41977 -52.71825,-92.42718 C 521.07064,302.43869 515.69843,300 510.5129,300 c -5.29931,0 -8.52489,1.38698 -11.96792,5.14611 -4.24991,4.64009 -53.45233,90.77245 -54.07404,94.66051 -1.05302,6.5852 4.58736,15.52476 10.98361,17.40816 1.5,0.44168 26.16086,0.83996 54.80192,0.88505 45.07283,0.071 52.52744,-0.10719 55.44214,-1.32504 z"
     id="path2"
     transform="scale(0.125)" /><path
     style="fill:#ffcc00;stroke-width:0.909091"
     d="m 271.99965,382.5 c 0.94858,-1.625 5.54607,-9.60227 10.21665,-17.72727 4.67057,-8.125 8.74169,-14.7686 9.04692,-14.76354 0.57789,0.01 20.10042,33.8865 20.10042,34.87973 0,0.31109 -9.24496,0.56563 -20.54435,0.56563 h -20.54434 z"
     id="path3"
     transform="scale(0.125)" /><path
     style="fill:#ffcc00;stroke-width:0.909091"
     d="m 490.63066,383.40909 c 0.71187,-1.125 5.34522,-9.10227 10.29634,-17.72727 4.95112,-8.625 9.23821,-15.68182 9.52687,-15.68182 0.28866,0 5.08399,7.97727 10.6563,17.72727 l 10.13146,17.72728 h -20.95264 -20.95264 z"
     id="path4"
     transform="scale(0.125)" /><path
     style="fill:#ffcc00;stroke-width:0.909091"
     d="m 343.63636,559.14672 c -20.05815,-5.17407 -31.11689,-9.82636 -44.70888,-18.80853 -20.81153,-13.75315 -24.58058,-28.16258 -11.12801,-42.54342 4.38768,-4.69043 16.68389,-14.15841 18.38776,-14.15841 0.24753,0 0.59302,3.6445 0.76777,8.09889 0.29132,7.42569 0.54632,8.3812 3.06778,11.49521 5.46952,6.7549 5.55093,6.76954 37.63056,6.76954 27.2771,0 28.77382,-0.0886 32.57417,-1.92832 2.39667,-1.16021 4.9553,-3.39575 6.42338,-5.6123 2.40416,-3.62983 2.44438,-3.94223 2.7368,-21.2535 l 0.29678,-17.56952 H 400 410.31553 l 0.29678,17.56952 c 0.29242,17.31127 0.33264,17.62367 2.7368,21.2535 1.46808,2.21655 4.02671,4.45209 6.42338,5.6123 3.79847,1.83881 5.30097,1.92832 32.36893,1.92832 31.95773,0 32.84175,-0.16188 38.03319,-6.96446 2.26941,-2.97372 2.58792,-4.23562 2.87039,-11.37203 0.17475,-4.41493 0.52025,-8.02715 0.76776,-8.02715 1.70388,0 14.00009,9.46798 18.38777,14.15841 11.50739,12.30145 10.74408,22.8248 -2.59978,35.84159 -13.29702,12.97109 -33.3182,21.64829 -66.19166,28.68756 -2.04264,0.43739 -2.04548,0.42083 -2.06542,-12.07933 -0.0231,-14.49343 -1.17322,-18.28855 -6.85577,-22.62285 L 431.05062,525 H 400 368.94938 l -3.43728,2.62174 c -5.68078,4.33294 -6.83265,8.13102 -6.85577,22.60553 -0.011,6.875 -0.32678,12.48582 -0.70178,12.46849 -0.375,-0.0173 -6.81819,-1.6144 -14.31819,-3.54904 z"
     id="path5"
     transform="scale(0.125)" /><path
     style="fill:#005500;stroke-width:0.909091"
     d="m 433.52088,209.88256 c -4.06352,-1.41155 -11.42715,-3.26232 -16.36364,-4.11281 -4.93648,-0.85049 -9.12176,-1.65432 -9.30062,-1.78628 -0.73929,-0.54544 24.80435,-47.50081 28.32259,-52.06375 7.20773,-9.348 18.82542,-17.31954 31.09352,-21.33496 5.72967,-1.87536 17.93306,-3.45273 18.94659,-2.44897 0.81582,0.80795 -43.14786,83.9665 -44.50595,84.18426 -0.44235,0.0709 -4.12897,-1.02594 -8.19249,-2.43749 z"
     id="path6"
     transform="scale(0.125)" /></svg>
