<svg width="800" height="800" viewBox="0 0 100 100" version="1.0" xml:space="preserve" xmlns="http://www.w3.org/2000/svg"><path d="M49.7 88.1c-4.4 0-8.6-2.2-12-6.1-1.8.9-3.7 1.4-5.6 1.4-10.1 0-18-12.2-18-27.9 0-15.6 7.9-27.9 18-27.9 2.5 0 5 .8 7.3 2.4 2.3-2.1 4.8-3.5 7.5-4.1.9-.2 1.9-.3 2.9-.3 2.6 0 5.1.7 7.4 2.2 1.1.7 2.1 1.5 3.1 2.4 2.4-1.7 5-2.6 7.6-2.6 10.1 0 18 12.2 18 27.9 0 15.6-7.9 27.9-18 27.9-2.1 0-4.1-.5-6-1.6-3.5 4.1-7.7 6.3-12.2 6.3zM38.2 77.4c.6 0 1.2.3 1.6.8 2.8 3.8 6.4 5.9 9.9 5.9 3.6 0 7.2-2.2 10.1-6.1.6-.9 1.9-1.1 2.8-.5 1.7 1.2 3.5 1.8 5.3 1.8 7.6 0 14-10.9 14-23.9 0-12.9-6.4-23.9-14-23.9-2.2 0-4.4.9-6.4 2.8-.4.4-.9.5-1.5.5-.5 0-1-.3-1.4-.7-1.1-1.3-2.3-2.3-3.5-3-2.3-1.4-4.9-1.9-7.3-1.4-2.4.5-4.7 1.9-6.7 4.2-.7.8-2 .9-2.8.2-2-1.7-4-2.5-6.2-2.5-7.6 0-14 10.9-14 23.9 0 12.9 6.4 23.9 14 23.9 1.7 0 3.4-.5 5-1.6.3-.3.7-.4 1.1-.4zm4.4-25.2H30.2c-.7 0-1.4-.4-1.7-1-.4-.6-.4-1.4 0-2l6.2-10.7c.4-.6 1-1 1.7-1s1.4.4 1.7 1l6.2 10.7c.4.6.4 1.4 0 2-.3.6-1 1-1.7 1zm-8.9-4h5.4l-2.7-4.7-2.7 4.7zm36.3 4H57.6c-.7 0-1.4-.4-1.7-1-.4-.6-.4-1.4 0-2l6.2-10.7c.4-.6 1-1 1.7-1s1.4.4 1.7 1l6.2 10.7c.4.6.4 1.4 0 2-.4.6-1 1-1.7 1zm-8.9-4h5.4l-2.7-4.7-2.7 4.7zm-8 26.5c-.5 0-1-.2-1.3-.5-.4-.4-.7-.9-.7-1.5v-3.1h-2.2v3.1c0 .6-.2 1.1-.7 1.5-.4.4-1 .6-1.5.5-9.3-.8-15.8-5.1-15.8-10.3 0-3.8 3.2-7 8.8-8.9.6-.2 1.3-.1 1.8.3s.8 1 .8 1.6v2.4h2.2V56c0-1 .8-1.9 1.8-2 2.4-.2 4.9-.2 7.2 0 1 .1 1.8 1 1.8 2v3.7h2.2v-2.4c0-.6.3-1.3.8-1.6.5-.4 1.2-.5 1.8-.3 5.6 1.9 8.8 5.1 8.8 8.9 0 5.2-6.5 9.5-15.8 10.3.1.1.1.1 0 .1zm-6.2-9.1h6.2c1.1 0 2 .9 2 2v2.8c6.2-1 10-3.8 10-6.1 0-1.4-1.3-2.8-3.5-4v1.4c0 1.1-.9 2-2 2h-6.2c-1.1 0-2-.9-2-2v-3.8h-2.8v3.8c0 1.1-.9 2-2 2h-6.2c-1.1 0-2-.9-2-2v-1.4c-2.2 1.2-3.5 2.6-3.5 4 0 2.3 3.8 5 10 6.1v-2.8c0-1.1.9-2 2-2zm9.2-34.1c-.4 0-.7-.1-1-.3-2.3-1.4-4.8-1.9-7.3-1.4-.8.2-1.6-.1-2-.7-.5-.6-.5-1.5-.2-2.2l4.7-8.7c2.1-3.9 6.1-6.3 10.5-6.3 2.3 0 4.2 1.9 4.2 4.2 0 .7-.2 1.4-.5 2l-6.6 12.3c-.3.5-.7.8-1.2 1-.2 0-.4.1-.6.1zm-5.3-5.9c1.5.1 3.1.5 4.5 1.1l5.6-10.5v-.1s0-.2-.2-.2c-2.9 0-5.6 1.6-7 4.2l-2.9 5.5z"/><path style="fill:#f60;stroke-width:.909091" d="M389.253 671.768c-21.255-2.47-45.025-16.406-61.98-36.336-3.5-4.114-7.491-8.815-8.87-10.446-3.317-3.928-7.693-5.895-13.11-5.895-3.667 0-5.556.7-10.96 4.063-13.62 8.476-22.26 10.953-37.97 10.887-10.458-.044-12.654-.339-19.09-2.557-46.431-16.003-81.312-76.457-90.553-156.939-1.676-14.59-1.442-48.873.439-64.545 5.22-43.49 17.38-79.412 36.788-108.683 16.118-24.31 36.358-40.593 57.029-45.88 8.768-2.242 22.787-2.402 31.239-.356 8.471 2.05 21.28 8.444 29.193 14.573 13.837 10.715 19.092 10.336 31.677-2.284 10.038-10.067 18.07-16.15 28.095-21.278 9.961-5.095 14.752-6.565 25.929-7.958 18.772-2.339 32.681.735 53.297 11.779 8.025 4.3 11.211 6.741 20.567 15.767 6.09 5.875 12.541 11.295 14.338 12.046 6.828 2.853 11.91 1.266 21.522-6.722 8.415-6.992 18.204-12.54 27.712-15.704 5.44-1.81 8.145-2.113 18.637-2.08 10.828.035 13.128.326 19.545 2.473 14.404 4.82 28.986 15.005 40.661 28.398 26.581 30.493 43.674 74.56 49.895 128.636 1.655 14.394 1.42 48.814-.442 64.546-8.575 72.444-39.851 130.198-81.023 149.611-22.035 10.39-44.098 8.884-66.258-4.524-7.638-4.62-8.89-5.087-13.665-5.087-7.375 0-10.357 1.77-16.837 9.997-3.115 3.955-9.825 11.198-14.911 16.096-17.814 17.156-35.404 26.154-55.51 28.396-4.76.53-8.775.912-8.92.846-.144-.066-3.053-.444-6.464-.84zm-4.719-76.698c6.35-4.843 6.822-6.437 6.826-23.025l.003-14.772h17.273V571.4c0 12.069.251 14.618 1.722 17.5 3.659 7.17 9.456 9.92 17.737 8.418 3.048-.553 10.667-1.796 16.932-2.763 55.616-8.577 96.61-35.02 104.953-67.7 1.767-6.92 1.772-18.574.012-25.528-5.961-23.55-29.792-44.552-64.819-57.124-7.815-2.805-11.14-2.944-16.082-.675-7.654 3.515-9.546 8.034-9.546 22.806v10.939H443.352l-.312-17.196-.313-17.197-2.727-3.859c-4.457-6.307-7.219-7.215-24.982-8.215-10.059-.566-21.08-.557-31.351.026-18.513 1.05-21.663 2.11-25.446 8.565-2.259 3.854-2.312 4.345-2.312 21.365v17.42H338.774l-.296-12.646c-.294-12.563-.315-12.67-3.088-16.137-3.418-4.272-7.9-6.668-12.475-6.67-1.897-.001-7.42 1.481-12.273 3.294-40.107 14.978-63.748 40.432-63.81 68.705-.02 8.8 1.426 14.62 6.003 24.157 8.832 18.408 30.562 35.145 59.818 46.073 15.387 5.748 30.306 9.15 55.529 12.664 6.993.974 12.948.045 16.352-2.552zm-37.156-178.627c5.754-2.613 8.844-7.31 9.244-14.052l.33-5.573-26.073-45c-14.34-24.75-26.95-45.96-28.021-47.132-3.01-3.291-6.43-4.686-11.494-4.686-5.236 0-8.458 1.39-11.934 5.146-1.313 1.42-13.933 22.53-28.043 46.912-17.987 31.082-25.799 45.407-26.138 47.934-.913 6.81 4.693 15.261 11.49 17.321 1.294.392 25.875.739 54.625.77 49.183.055 52.493-.042 56.014-1.64zm218.32.332c7.853-3.281 12.18-11.17 10.2-18.597-.643-2.416-45.705-81.42-52.718-92.428-2.11-3.311-7.482-5.75-12.667-5.75-5.3 0-8.525 1.387-11.968 5.146-4.25 4.64-53.452 90.773-54.074 94.66-1.053 6.586 4.587 15.525 10.984 17.409 1.5.441 26.16.84 54.801.885 45.073.07 52.528-.107 55.443-1.325z" transform="scale(.125)"/><path style="fill:#fc0;stroke-width:.909091" d="M272 382.5a6177.84 6177.84 0 0 0 10.216-17.727c4.67-8.125 8.742-14.769 9.047-14.764.578.01 20.1 33.887 20.1 34.88 0 .311-9.244.566-20.544.566h-20.544zM490.63 383.41c.713-1.126 5.346-9.103 10.297-17.728 4.951-8.625 9.238-15.682 9.527-15.682.289 0 5.084 7.977 10.656 17.727l10.132 17.728h-41.906zM343.636 559.147c-20.058-5.174-31.117-9.827-44.709-18.809-20.811-13.753-24.58-28.162-11.128-42.543 4.388-4.69 16.684-14.159 18.388-14.159.248 0 .593 3.645.768 8.1.291 7.425.546 8.38 3.068 11.494 5.47 6.755 5.55 6.77 37.63 6.77 27.277 0 28.774-.089 32.575-1.928 2.396-1.16 4.955-3.396 6.423-5.613 2.404-3.63 2.444-3.942 2.737-21.253l.296-17.57h20.632l.296 17.57c.293 17.311.333 17.624 2.737 21.253 1.468 2.217 4.027 4.452 6.423 5.613 3.799 1.838 5.301 1.928 32.37 1.928 31.957 0 32.841-.162 38.033-6.964 2.269-2.974 2.588-4.236 2.87-11.372.175-4.415.52-8.028.768-8.028 1.704 0 14 9.468 18.388 14.159 11.507 12.301 10.744 22.825-2.6 35.841-13.297 12.971-33.318 21.649-66.192 28.688-2.043.437-2.045.42-2.065-12.08-.023-14.493-1.174-18.288-6.856-22.622L431.05 525H368.95l-3.438 2.622c-5.68 4.333-6.833 8.13-6.856 22.605-.01 6.875-.326 12.486-.701 12.469-.375-.018-6.819-1.615-14.319-3.55z" transform="scale(.125)"/><path style="fill:#050;stroke-width:.909091" d="M433.52 209.883c-4.063-1.412-11.426-3.263-16.363-4.113-4.936-.85-9.122-1.655-9.3-1.787-.74-.545 24.804-47.5 28.322-52.063 7.208-9.348 18.826-17.32 31.094-21.335 5.73-1.876 17.933-3.453 18.946-2.45.816.809-43.148 83.967-44.506 84.185-.442.071-4.129-1.026-8.192-2.437z" transform="scale(.125)"/></svg>