<svg height="800" width="800" xmlns="http://www.w3.org/2000/svg" viewBox="0 0 254.395 254.395"><path d="M204.413 27.687C198.198 12.679 168.889 0 140.413 0c-12.462 0-24.28 2.278-35.128 6.77C80.1 17.203 65.644 37.17 59.269 48.145c-9.685 16.672-13.331 33.751-9.288 43.511 4.969 11.998 24.699 22.5 46.962 26.234L86.138 246.266a7.5 7.5 0 0 0 7.473 8.129h67.172a7.5 7.5 0 0 0 7.475-8.121l-11.425-137.366c20.459-10.949 32.6-27.911 38.291-37.709 9.686-16.674 13.332-33.754 9.289-43.512zm-93.387-7.058C120.043 16.894 129.931 15 140.413 15c21.499 0 39.479 7.93 46.848 14.38L63.321 80.719c.996-14.394 16.168-47.027 47.705-60.09zm-9.256 218.766 10.107-120.08c.701.015 1.404.029 2.105.029 9.9 0 19.385-1.462 28.309-4.306l10.343 124.357H101.77zm41.599-140.681c-9.018 3.736-18.905 5.63-29.387 5.63-21.5 0-39.48-7.93-46.849-14.381L191.04 38.638c-.384 5.714-2.891 14.703-8.886 25.025-5.424 9.338-17.675 26.308-38.785 35.051z"/></svg>