<svg height="800" width="800" viewBox="0 0 254.395 254.395" xmlns="http://www.w3.org/2000/svg"><path d="M204.413 27.687C198.198 12.679 168.889 0 140.413 0c-12.462 0-24.28 2.278-35.128 6.77C80.1 17.203 65.644 37.17 59.269 48.145c-9.685 16.672-13.331 33.751-9.288 43.511 4.969 11.998 24.699 22.5 46.962 26.234L86.138 246.266a7.5 7.5 0 0 0 7.473 8.129h67.172a7.5 7.5 0 0 0 7.475-8.121l-11.425-137.366c20.459-10.949 32.6-27.911 38.291-37.709 9.686-16.674 13.332-33.754 9.289-43.512zm-93.387-7.058C120.043 16.894 129.931 15 140.413 15c21.499 0 39.479 7.93 46.848 14.38L63.321 80.719c.996-14.394 16.168-47.027 47.705-60.09zm-9.256 218.766 10.107-120.08c.701.015 1.404.029 2.105.029 9.9 0 19.385-1.462 28.309-4.306l10.343 124.357H101.77zm41.599-140.681c-9.018 3.736-18.905 5.63-29.387 5.63-21.5 0-39.48-7.93-46.849-14.381L191.04 38.638c-.384 5.714-2.891 14.703-8.886 25.025-5.424 9.338-17.675 26.308-38.785 35.051z"/><path style="fill:#999;stroke-width:.909091" d="M200.338 247.622c2.26-19.61 15.353-52.58 31.079-78.266 39.81-65.023 99.999-107.06 169.555-118.423 50.99-8.33 108.724-.208 155.135 21.823 10.328 4.903 24 13.09 29.377 17.593l2.302 1.928-193.083 79.998c-106.195 43.999-193.51 80.155-194.032 80.347-.636.234-.746-1.42-.333-5zM327.677 325.955c-28.934-3.474-58.104-11.438-81.804-22.335-9.854-4.53-24.984-13.45-29.964-17.665l-3.636-3.077 2.272-.876c1.25-.482 88.314-36.516 193.475-80.075 105.161-43.56 191.424-79.2 191.696-79.2.937 0-.802 10.485-3.443 20.767-10.362 40.34-39.831 87.667-74.91 120.305-35.775 33.287-74.64 52.478-123.181 60.827-14.464 2.488-54.559 3.244-70.505 1.329zM320.858 751.59c-.028-.624 7.021-85.451 15.664-188.504l15.714-187.37 17.746-.557c24.884-.782 44.447-3.65 66.724-9.782 5.439-1.497 10-2.604 10.138-2.459.32.338 32.271 383.973 32.257 387.31l-.01 2.5H400c-62.64 0-79.101-.237-79.142-1.137z" transform="scale(.318)"/></svg>