<?xml version="1.0" encoding="UTF-8" standalone="no"?>
<svg
   height="800"
   width="800"
   viewBox="0 0 254.395 254.395"
   version="1.1"
   id="svg1"
   sodipodi:docname="Superbowl.svg"
   inkscape:version="1.4.3 (0d15f75, 2025-12-25)"
   xmlns:inkscape="http://www.inkscape.org/namespaces/inkscape"
   xmlns:sodipodi="http://sodipodi.sourceforge.net/DTD/sodipodi-0.dtd"
   xmlns="http://www.w3.org/2000/svg"
   xmlns:svg="http://www.w3.org/2000/svg">
  <defs
     id="defs1" />
  <sodipodi:namedview
     id="namedview1"
     pagecolor="#ffffff"
     bordercolor="#000000"
     borderopacity="0.25"
     inkscape:showpageshadow="2"
     inkscape:pageopacity="0.0"
     inkscape:pagecheckerboard="0"
     inkscape:deskcolor="#d1d1d1"
     inkscape:zoom="1.1"
     inkscape:cx="400.45455"
     inkscape:cy="400.45455"
     inkscape:window-width="1024"
     inkscape:window-height="1186"
     inkscape:window-x="2249"
     inkscape:window-y="123"
     inkscape:window-maximized="0"
     inkscape:current-layer="svg1" />
  <path
     d="M204.413 27.687C198.198 12.679 168.889 0 140.413 0c-12.462 0-24.28 2.278-35.128 6.77C80.1 17.203 65.644 37.17 59.269 48.145c-9.685 16.672-13.331 33.751-9.288 43.511 4.969 11.998 24.699 22.5 46.962 26.234L86.138 246.266a7.5 7.5 0 0 0 7.473 8.129h67.172a7.5 7.5 0 0 0 7.475-8.121l-11.425-137.366c20.459-10.949 32.6-27.911 38.291-37.709 9.686-16.674 13.332-33.754 9.289-43.512zm-93.387-7.058C120.043 16.894 129.931 15 140.413 15c21.499 0 39.479 7.93 46.848 14.38L63.321 80.719c.996-14.394 16.168-47.027 47.705-60.09zm-9.256 218.766 10.107-120.08c.701.015 1.404.029 2.105.029 9.9 0 19.385-1.462 28.309-4.306l10.343 124.357H101.77zm41.599-140.681c-9.018 3.736-18.905 5.63-29.387 5.63-21.5 0-39.48-7.93-46.849-14.381L191.04 38.638c-.384 5.714-2.891 14.703-8.886 25.025-5.424 9.338-17.675 26.308-38.785 35.051z"
     id="path1" />
  <path
     style="fill:#999999;stroke-width:0.909091"
     d="m 200.33771,247.62227 c 2.26104,-19.61061 15.35319,-52.58052 31.07902,-78.26613 39.80967,-65.0227 99.99893,-107.060993 169.55502,-118.423153 50.9899,-8.329331 108.72459,-0.207597 155.13509,21.82338 10.32771,4.902545 23.99992,13.090329 29.3771,17.592853 l 2.30211,1.927657 -193.08261,79.997923 c -106.19545,43.99886 -193.5101,80.15522 -194.03257,80.34747 -0.63561,0.23388 -0.74585,-1.42057 -0.33316,-5 z"
     id="path2"
     transform="scale(0.31799375)" />
  <path
     style="fill:#999999;stroke-width:0.909091"
     d="m 327.67707,325.95498 c -28.93421,-3.47387 -58.10385,-11.43802 -81.80369,-22.33475 -9.85422,-4.53078 -24.98482,-13.45073 -29.96429,-17.66486 l -3.63636,-3.07745 2.27272,-0.87596 c 1.25,-0.48177 88.31364,-36.51567 193.47475,-80.07532 105.16111,-43.55965 191.42415,-79.19937 191.69565,-79.19937 0.9367,0 -0.80145,10.48485 -3.4427,20.76702 -10.36224,40.33931 -39.83141,87.66681 -74.90951,120.30469 -35.77541,33.2867 -74.64007,52.478 -123.18182,60.82699 -14.464,2.48775 -54.55852,3.24353 -70.50475,1.32901 z"
     id="path3"
     transform="scale(0.31799375)" />
  <path
     style="fill:#999999;stroke-width:0.909091"
     d="m 320.8583,751.59091 c -0.0279,-0.625 7.02067,-85.45234 15.66357,-188.50518 l 15.71438,-187.36883 17.74551,-0.55773 c 24.88414,-0.78209 44.4473,-3.65021 66.7245,-9.78237 5.43845,-1.49702 10.00043,-2.60331 10.13775,-2.45842 0.31993,0.33758 32.27135,383.97296 32.25737,387.30889 l -0.0105,2.5 H 400 c -62.63958,0 -79.10147,-0.23637 -79.1417,-1.13636 z"
     id="path4"
     transform="scale(0.31799375)" />
</svg>
