<svg width="800" height="800" viewBox="0 0 512 512" baseProfile="tiny" overflow="visible" xml:space="preserve" xmlns="http://www.w3.org/2000/svg"><path d="M186.319 226.944c-7.976 34.989 9.278 68.782 38.539 75.479s59.448-16.239 67.424-51.227c3.275-14.367 2.296-28.531-2.022-40.7-8.171-23.029-9.282-46.653-4.179-69.035l3.165-13.882a5.037 5.037 0 0 0-3.786-6.029l-36.807-8.424a5.034 5.034 0 0 0-6.032 3.79l-3.163 13.875c-5.103 22.383-16.34 43.18-33.68 60.371-9.164 9.082-16.184 21.415-19.459 35.782z" fill="#D97C41"/><path d="M290.26 210.495c-8.171-23.029-9.282-46.653-4.179-69.035l3.165-13.882a5.037 5.037 0 0 0-3.786-6.029l-36.807-8.424c-2.594-.594-5.157.944-5.919 3.452l21.726 4.972a5.037 5.037 0 0 1 3.786 6.029l-3.165 13.882c-5.103 22.383-3.992 46.006 4.179 69.035 4.318 12.17 5.297 26.334 2.022 40.7-6.071 26.632-25.013 46.263-46.617 51.177.065.015.128.036.193.05 29.261 6.697 59.448-16.238 67.424-51.227 3.275-14.367 2.296-28.531-2.022-40.7z" fill="#C76D33"/><path d="m265.369 59-12.555 55.076 28.477 6.517 12.555-55.076c7.984-.066 15.187-5.633 17.054-13.825 2.18-9.562-3.734-19.072-13.21-21.241a17.405 17.405 0 0 0-11.084 1.107 17.433 17.433 0 0 0-9.505-5.819c-9.476-2.169-18.924 3.825-21.104 13.387-1.868 8.193 2.208 16.342 9.372 19.874z" fill="#F2C7AE"/><path d="M299.65 205.543c-26.366 0-50.797 7.752-70.845 20.954-13.684 9.011-30.59 11.407-46.363 7.122-35.251-9.577-74.527-.031-101.743 28.652-38.188 40.246-38.204 104.497-.038 144.764 20.269 21.384 47.235 32.117 74.248 32.262v.025l1.083-.022a102.67 102.67 0 0 0 3.09-.062l133.509-2.698-.003-.019c2.339.124 4.689.21 7.061.21 68.137 0 123.373-51.753 123.373-115.593S367.787 205.543 299.65 205.543z" fill="#AF602D"/><g fill="#A05423"><path d="M163.028 233.618a58.281 58.281 0 0 0 25.051 1.233 59.063 59.063 0 0 1-5.637-1.233 102.999 102.999 0 0 0-36.696-3.132c5.821.55 11.604 1.59 17.282 3.132zM299.65 205.543c-3.269 0-6.508.121-9.712.354 63.601 4.636 113.671 54.458 113.671 115.239 0 63.84-55.236 115.593-123.373 115.593-2.372 0-4.722-.086-7.061-.21l.003.019-124.635 2.519c2.12.142 4.243.227 6.367.238v.025l1.083-.022c1.03-.005 2.06-.026 3.09-.062l133.509-2.698-.003-.019c2.339.124 4.689.21 7.061.21 68.137 0 123.373-51.753 123.373-115.593S367.787 205.543 299.65 205.543z"/></g><path d="M294.408 221.326c-27.202 23.095-33.54 60.579-14.156 83.723s57.149 23.183 84.351.088c11.169-9.483 18.82-21.392 22.616-33.738 7.185-23.363 20.362-42.906 37.763-57.681l10.794-9.164a5.037 5.037 0 0 0 .601-7.074l-24.419-29.155a5.033 5.033 0 0 0-7.118-.605l-10.744 9.122c-17.401 14.774-38.759 24.551-62.843 27.737-12.726 1.683-25.676 7.264-36.845 16.747z" fill="#D97C41"/><path d="m436.378 197.481-24.419-29.155a5.033 5.033 0 0 0-7.118-.605l-8.409 7.14 18.946 22.621a5.037 5.037 0 0 1-.601 7.074l-10.794 9.164c-17.401 14.774-30.579 34.318-37.763 57.681-3.797 12.346-11.447 24.254-22.617 33.737-10.45 8.872-22.458 14.316-34.384 16.362 17.975 3.27 38.671-2.172 55.384-16.362 11.17-9.483 18.82-21.392 22.617-33.737 7.185-23.363 20.362-42.906 37.763-57.681l10.794-9.164a5.04 5.04 0 0 0 .601-7.075z" fill="#C76D33"/><path d="m457.534 135.263-42.819 36.354 18.864 22.523 42.819-36.354c6.416 4.803 15.483 4.736 21.852-.671 7.434-6.312 8.372-17.504 2.095-24.999a17.554 17.554 0 0 0-9.512-5.857 17.761 17.761 0 0 0-4.127-10.428c-6.277-7.495-17.392-8.454-24.827-2.142-6.368 5.409-7.964 14.396-4.345 21.574z" fill="#F2C7AE"/><g fill="#EFB899"><path d="M276.606 31.558a17.418 17.418 0 0 1 8.587-1.481 17.397 17.397 0 0 0-16.99-4.037 17.439 17.439 0 0 1 8.403 5.518zM297.69 30.452a17.366 17.366 0 0 0-8.914.307c8.83 2.625 14.219 11.745 12.124 20.933-1.867 8.192-9.07 13.76-17.054 13.825l-12.06 52.901 9.504 2.175 12.556-55.076c7.984-.065 15.187-5.633 17.054-13.825 2.18-9.562-3.735-19.072-13.21-21.24z"/></g><g fill="#EFB899"><path d="m466.398 157.786-36.975 31.392 4.156 4.962 39.269-33.34a17.515 17.515 0 0 1-6.45-3.014zM500.346 132.116a17.554 17.554 0 0 0-9.512-5.857 17.748 17.748 0 0 0-4.127-10.428 17.553 17.553 0 0 0-18.484-5.578c3.2.95 6.171 2.817 8.484 5.578a17.756 17.756 0 0 1 4.128 10.428 17.543 17.543 0 0 1 9.512 5.857c6.277 7.495 5.339 18.687-2.095 24.999a17.464 17.464 0 0 1-6.333 3.432c5.483 1.627 11.64.553 16.333-3.432 7.433-6.312 8.371-17.504 2.094-24.999z"/></g><path d="M433.278 451.637H33.889a5.036 5.036 0 0 1-4.409-2.604L8.13 410.309c-1.851-3.357.577-7.468 4.409-7.468h442.088c3.832 0 6.26 4.112 4.409 7.468l-21.35 38.724a5.031 5.031 0 0 1-4.408 2.604z" fill="#FFAAA1"/><path d="M380.864 486.704H93.921a5.234 5.234 0 0 1-5.234-5.234v-29.832h297.411v29.832a5.234 5.234 0 0 1-5.234 5.234z" fill="#F54432"/><path d="M454.627 402.84h-20c3.832 0 6.26 4.112 4.409 7.468l-21.35 38.724a5.034 5.034 0 0 1-4.409 2.604h20a5.036 5.036 0 0 0 4.409-2.604l21.35-38.724c1.851-3.356-.576-7.468-4.409-7.468z" fill="#FF938A"/><path d="M366.098 451.637v29.832a5.234 5.234 0 0 1-5.234 5.234h20a5.234 5.234 0 0 0 5.234-5.234v-29.832h-20z" fill="#E83826"/><g><path d="M186.754 240.281a7.5 7.5 0 0 1-7.449-8.453 83.751 83.751 0 0 1 1.428-8.028c3.489-15.331 10.922-28.972 21.494-39.44 15.81-15.673 26.754-35.284 31.647-56.711l3.158-13.875c1.544-6.748 8.282-10.978 15.016-9.437l36.821 8.432c6.72 1.538 10.944 8.271 9.409 15.007l-3.16 13.878c-4.611 20.228-3.763 40.621 2.523 60.616a7.5 7.5 0 0 1-14.31 4.498c-6.993-22.247-7.975-45.916-2.838-68.447l2.615-11.486-31.997-7.327-2.612 11.474c-5.527 24.21-17.877 46.35-35.713 64.032-8.546 8.462-14.57 19.567-17.428 32.119a68.993 68.993 0 0 0-1.173 6.597 7.505 7.505 0 0 1-7.431 6.551z"/><path d="M283.014 126.621c-.559 0-1.12-.062-1.673-.189l-28.477-6.517a7.5 7.5 0 0 1-5.64-8.978l11.409-50.048c-7.055-5.968-10.372-15.485-8.226-24.9 1.497-6.567 5.443-12.164 11.111-15.76 5.69-3.609 12.432-4.77 18.979-3.272a24.831 24.831 0 0 1 9.776 4.631 24.774 24.774 0 0 1 10.813.081c13.488 3.087 21.945 16.644 18.85 30.219-2.147 9.417-9.259 16.549-18.201 18.86l-11.408 50.041a7.5 7.5 0 0 1-7.313 5.832zm-19.499-19.657 13.856 3.171 10.887-47.757a7.5 7.5 0 0 1 7.251-5.833c4.708-.039 8.739-3.326 9.803-7.992 1.258-5.519-2.139-11.02-7.571-12.263a9.896 9.896 0 0 0-6.324.632 7.499 7.499 0 0 1-8.833-2.018 9.922 9.922 0 0 0-5.431-3.326c-2.615-.6-5.313-.131-7.597 1.317a10.251 10.251 0 0 0-4.522 6.427c-1.065 4.672 1.146 9.393 5.376 11.479a7.5 7.5 0 0 1 3.996 8.394l-10.891 47.769zM388.648 408.872a7.5 7.5 0 0 1-5.134-12.97c21.752-20.406 33.732-47.482 33.732-76.241 0-24.562-8.611-47.715-24.904-66.954a7.5 7.5 0 0 1 11.447-9.693c18.616 21.984 28.456 48.488 28.456 76.648 0 32.948-13.661 63.909-38.468 87.181a7.477 7.477 0 0 1-5.129 2.029zM78.636 408.872a7.484 7.484 0 0 1-5.718-2.642c-17.862-21.006-27.312-47.965-26.612-75.913.703-28.056 11.598-54.578 30.675-74.68 28.096-29.612 69.917-41.388 109.149-30.724.724.193 1.477.377 2.23.543 13.22 2.969 27.081.524 38.048-6.699 18.749-12.348 40.696-19.856 63.467-21.712 3.769-.315 7.643-.475 11.499-.475 7.167 0 14.338.549 21.317 1.631 3.652.504 6.469 3.639 6.469 7.429 0 4.142-3.353 7.5-7.495 7.5h-.01c-.387 0-.773-.03-1.156-.09a125.334 125.334 0 0 0-29.39-1.046c-20.282 1.654-39.797 8.323-56.45 19.29-14.345 9.449-32.409 12.662-49.557 8.814a68.466 68.466 0 0 1-2.875-.702c-33.923-9.221-70.071.963-94.364 26.567-33.872 35.691-35.417 93.036-3.517 130.551a7.5 7.5 0 0 1-5.71 12.358z"/><path d="M321.279 328.459c-1.89 0-3.772-.079-5.648-.238-15.827-1.346-29.822-8.388-39.405-19.829-21.99-26.256-15.238-68.539 15.052-94.256 11.939-10.136 26.019-16.522 40.717-18.465 21.95-2.903 42.342-11.901 58.971-26.019l10.745-9.122a12.441 12.441 0 0 1 9.175-2.934 12.447 12.447 0 0 1 8.547 4.441l24.418 29.155c4.409 5.261 3.738 13.16-1.495 17.605l-10.795 9.165c-16.637 14.125-28.895 32.855-35.449 54.168-4.38 14.24-13.001 27.12-24.931 37.25-14.47 12.288-32.379 19.079-49.902 19.079zm88.249-154.888-8.853 7.515c-18.83 15.987-41.899 26.173-66.713 29.454-11.836 1.565-23.239 6.762-32.975 15.029-24.028 20.4-29.977 53.233-13.261 73.189 6.997 8.356 17.36 13.51 29.176 14.515 15.313 1.306 31.564-4.284 44.571-15.328 9.745-8.274 16.766-18.725 20.302-30.224 7.398-24.053 21.256-45.213 40.078-61.194l8.929-7.58-21.254-25.376zm-113.395 46.282h.01-.01z"/><path d="M435.932 198.085c-.361 0-.723-.016-1.086-.046a12.448 12.448 0 0 1-8.547-4.442l-12.397-14.801c-4.41-5.262-3.739-13.162 1.497-17.607l35.087-29.79c-2.09-9.161 1.052-18.775 8.263-24.898 5.124-4.35 11.63-6.431 18.316-5.864 6.704.57 12.782 3.733 17.115 8.907a25.404 25.404 0 0 1 5.033 9.653 25.254 25.254 0 0 1 8.607 6.632c8.904 10.631 7.563 26.571-2.991 35.531a24.996 24.996 0 0 1-25.812 4.032l-34.996 29.713a12.435 12.435 0 0 1-8.089 2.98zm-8.959-27.046 9.234 11.024 34.298-29.121c3.833-3.254 9.185-3.92 13.634-1.693a10.018 10.018 0 0 0 10.982-1.323c4.291-3.643 4.829-10.132 1.2-14.466a10.005 10.005 0 0 0-3.939-2.885 12.517 12.517 0 0 1-7.526-8.964 10.187 10.187 0 0 0-2.173-4.436 10.04 10.04 0 0 0-6.887-3.592 9.954 9.954 0 0 0-7.337 2.353c-3.107 2.638-4.349 6.888-3.162 10.825 1.42 4.712-.117 9.841-3.917 13.068l-34.407 29.21zm29.551-34.928h.01-.01z"/><g><path d="M435.002 457.664H35.613a12.535 12.535 0 0 1-10.977-6.484l-21.35-38.724c-2.163-3.924-2.094-8.57.185-12.428 2.278-3.858 6.313-6.161 10.793-6.161h442.088c4.48 0 8.515 2.303 10.792 6.161 2.279 3.858 2.348 8.504.185 12.429l-21.349 38.724a12.537 12.537 0 0 1-10.978 6.483zm-397.932-15h396.476l18.632-33.797H18.437l18.633 33.797z"/></g><g><path d="M382.822 492.731H95.412c-6.893 0-12.5-5.607-12.5-12.5v-25.066c0-6.893 5.607-12.5 12.5-12.5h292.41a7.5 7.5 0 0 1 7.5 7.5v30.066c0 6.892-5.607 12.5-12.5 12.5zM97.912 477.73h282.41v-20.066H97.912v20.066z"/></g></g></svg>